0
SECTION
2
HEADER
9
$INSUNITS
70
4
9
$ACADVER
1
AC1014
9
$HANDSEED
5
FFFF
0
ENDSEC
0
SECTION
2
TABLES
0
TABLE
2
VPORT
5
8
100
AcDbSymbolTable
0
ENDTAB
0
TABLE
2
LTYPE
5
5
100
AcDbSymbolTable
0
LTYPE
5
14
100
AcDbSymbolTableRecord
100
AcDbLinetypeTableRecord
2
BYBLOCK
70
0
0
LTYPE
5
15
100
AcDbSymbolTableRecord
100
AcDbLinetypeTableRecord
2
BYLAYER
70
0
0
LTYPE
5
16
100
AcDbSymbolTableRecord
100
AcDbLinetypeTableRecord
2
DASHED
70
0
3
Dashed __ __ __ __ __ __ __ __ __ __ __ __ __ _
72
65
73
2
40
0.75
49
0.5
74
0
49
-0.25
74
0
0
ENDTAB
0
TABLE
2
LAYER
5
2
100
AcDbSymbolTable
70
4
0
LAYER
5
50
100
AcDbSymbolTableRecord
100
AcDbLayerTableRecord
2
0
70
0
6
CONTINUOUS
0
LAYER
5
51
100
AcDbSymbolTableRecord
100
AcDbLayerTableRecord
2
BOARDS
70
0
6
CONTINUOUS
0
LAYER
5
52
100
AcDbSymbolTableRecord
100
AcDbLayerTableRecord
2
PERIMETER D 18.00
70
0
62
5
6
CONTINUOUS
0
LAYER
5
53
100
AcDbSymbolTableRecord
100
AcDbLayerTableRecord
2
INSETS D 12.00
70
0
62
3
6
CONTINUOUS
0
ENDTAB
0
TABLE
2
STYLE
5
3
100
AcDbSymbolTable
0
STYLE
5
11
100
AcDbSymbolTableRecord
100
AcDbTextStyleTableRecord
2
STANDARD
70
0
0
ENDTAB
0
TABLE
2
VIEW
5
6
100
AcDbSymbolTable
0
ENDTAB
0
TABLE
2
UCS
5
7
100
AcDbSymbolTable
0
ENDTAB
0
TABLE
2
APPID
5
9
100
AcDbSymbolTable
0
APPID
5
12
100
AcDbSymbolTableRecord
100
AcDbRegAppTableRecord
2
ACAD
70
0
0
ENDTAB
0
TABLE
2
DIMSTYLE
5
A
100
AcDbSymbolTable
0
ENDTAB
0
TABLE
2
BLOCK_RECORD
5
1
100
AcDbSymbolTable
0
BLOCK_RECORD
5
1F
100
AcDbSymbolTableRecord
100
AcDbBlockTableRecord
2
*MODEL_SPACE
0
BLOCK_RECORD
5
1B
100
AcDbSymbolTableRecord
100
AcDbBlockTableRecord
2
*PAPER_SPACE
0
ENDTAB
0
ENDSEC
0
SECTION
2
BLOCKS
0
BLOCK
5
20
100
AcDbEntity
100
AcDbBlockBegin
2
*MODEL_SPACE
0
ENDBLK
5
21
100
AcDbEntity
100
AcDbBlockEnd
0
BLOCK
5
1C
100
AcDbEntity
100
AcDbBlockBegin
2
*PAPER_SPACE
0
ENDBLK
5
1D
100
AcDbEntity
100
AcDbBlockEnd
0
ENDSEC
0
SECTION
2
ENTITIES
0
LWPOLYLINE
5
100
100
AcDbEntity
8
BOARDS
100
AcDbPolyline
90
4
70
1
43
0.0
10
0
20
0
10
1220
20
0
10
1220
20
-2440
10
0
20
-2440
0
LWPOLYLINE
5
101
100
AcDbEntity
8
PERIMETER D 18.00
100
AcDbPolyline
90
21
70
1
43
0.0
10
118.62827836168707
20
-61.094292710468793
42
0.99999998709521587
10
116.30483493331667
20
-57.776071609462662
10
15.999999999999943
20
-40.089622915210093
10
15.999999999999943
20
-21.000000000000028
42
-0.41421356237309503
10
20.999999999999943
20
-16.000000000000028
10
821.99999999999989
20
-15.999999999999922
42
-0.41421356237309503
10
826
20
-19.999999999999979
10
826.00000000000011
20
-71.999999999999972
42
-0.41421356237309503
10
822
20
-75.999999999999972
10
440.00000000000006
20
-76.000000000000043
42
0.41421356237310153
10
436
20
-80.000000000000028
10
435.99999999999994
20
-381.99999999999989
42
0.41421356237309503
10
439.99999999999994
20
-385.99999999999989
10
821.99999999999989
20
-385.99999999999994
42
-0.41421356237310542
10
826.00000000000011
20
-390
10
826
20
-441.99999999999994
42
-0.41421356237308982
10
822
20
-445.99999999999989
10
376
20
-445.99999999999994
10
375.99999999999994
20
-78.864348149230423
42
0.99999999999999989
10
373.13565185076953
20
-75.999999999999986
10
115.99999999999994
20
-76
0
LWPOLYLINE
5
102
100
AcDbEntity
8
PERIMETER D 18.00
100
AcDbPolyline
90
21
70
1
43
0.0
10
725.69516506668322
20
-503.77607160946263
42
0.99999999999999989
10
723.37172163831281
20
-507.09429271046866
10
726
20
-522
10
468.86434814923041
20
-522
42
0.99999999999999989
10
465.99999999999994
20
-524.86434814923052
10
465.99999999999994
20
-891.99999999999989
10
19.999999999999929
20
-892
42
-0.41421356237309309
10
15.999999999999957
20
-888
10
15.999999999999909
20
-836
42
-0.41421356237309392
10
19.99999999999995
20
-831.99999999999989
10
401.99999999999994
20
-832
42
0.41421356237305862
10
405.99999999999994
20
-828.00000000000011
10
405.99999999999994
20
-526.00000000000011
42
0.41421356237310025
10
401.99999999999989
20
-522
10
19.999999999999929
20
-522
42
-0.4142135623730947
10
15.999999999999932
20
-518
10
15.999999999999957
20
-466.00000000000011
42
-0.41421356237310025
10
19.999999999999943
20
-462
10
821
20
-461.99999999999994
42
-0.41421356237309503
10
826
20
-466.99999999999994
10
826
20
-486.08962291520987
0
LWPOLYLINE
5
103
100
AcDbEntity
8
PERIMETER D 18.00
100
AcDbPolyline
90
60
70
1
43
0.0
10
280
20
-917.13565185076959
42
1.0000000105367122
10
282.86434814923035
20
-920.00000000000011
10
343.13565185076948
20
-920.00000000000011
42
0.99999999999999989
10
346
20
-917.1356518507697
10
345.99999999999994
20
-908.00000000000011
10
411.99999999999994
20
-908.00000000000011
10
411.99999999999994
20
-917.1356518507697
42
0.99999999999999989
10
414.86434814923035
20
-920.00000000000011
10
478
20
-920.00000000000011
10
478.00000000000006
20
-956.00000000000023
42
-0.41421356237309503
10
474
20
-960.00000000000023
10
91.999999999999957
20
-960.00000000000011
42
0.41421356237309243
10
87.999999999999943
20
-964
10
87.999999999999986
20
-1270.0000000000002
42
0.41421356237306123
10
91.999999999999957
20
-1274.0000000000002
10
474
20
-1274
42
-0.41421356237309503
10
478
20
-1278
10
478
20
-1314.0000000000005
10
414.86434814923052
20
-1314
42
0.99999999999999989
10
411.99999999999994
20
-1316.8643481492304
10
411.99999999999994
20
-1326.0000000000002
10
345.99999999999994
20
-1326.0000000000002
10
345.99999999999994
20
-1316.8643481492304
42
0.99999999999999989
10
343.13565185076948
20
-1314
10
282.86434814923069
20
-1314.0000000000005
42
0.99999999999999989
10
279.99999999999994
20
-1316.8643481492304
10
279.99999999999994
20
-1326.0000000000002
10
213.99999999999994
20
-1326.0000000000002
10
213.99999999999994
20
-1316.8643481492304
42
1.0000000105367122
10
211.13565185076925
20
-1314.0000000000005
10
150.86434814923066
20
-1314.0000000000005
42
1.0000000105367122
10
147.99999999999991
20
-1316.8643481492304
10
147.99999999999997
20
-1326.0000000000002
10
81.999999999999957
20
-1326.0000000000002
10
81.999999999999957
20
-1316.8643481492304
42
1.0000000105367122
10
79.135651850769207
20
-1314.0000000000005
10
27.999999999999986
20
-1314.0000000000005
10
28.000000000000004
20
-1251.2643481492305
42
0.99999999999999989
10
25.135651850769506
20
-1248.4000000000001
10
15.999999999999943
20
-1248.4000000000001
10
16.000000000000014
20
-1170.8000000000002
10
25.135651850769577
20
-1170.8000000000002
42
0.99999999999999989
10
27.999999999999968
20
-1167.9356518507695
10
27.999999999999858
20
-1066.0643481492307
42
0.99999999999999989
10
25.135651850769527
20
-1063.2000000000003
10
15.999999999999943
20
-1063.2000000000003
10
15.999999999999943
20
-985.60000000000014
10
25.135651850769506
20
-985.60000000000014
42
0.99999999999999989
10
28.000000000000011
20
-982.73565185076973
10
27.999999999999972
20
-920.00000000000011
10
79.135651850769491
20
-920.00000000000011
42
0.99999999999999989
10
82.000000000000014
20
-917.1356518507697
10
82.000000000000028
20
-908.00000000000011
10
147.99999999999997
20
-908.00000000000011
10
147.99999999999997
20
-917.1356518507697
42
0.99999999999999989
10
150.86434814923052
20
-920.00000000000011
10
211.13565185076936
20
-920.00000000000011
42
0.99999999999999989
10
213.99999999999991
20
-917.1356518507697
10
213.99999999999989
20
-908.00000000000011
10
279.99999999999994
20
-908.00000000000011
0
LWPOLYLINE
5
104
100
AcDbEntity
8
PERIMETER D 18.00
100
AcDbPolyline
90
60
70
1
43
0.0
10
280.00000000000006
20
-1351.1356518507687
42
0.99999999999999989
10
282.86434814922967
20
-1354
10
343.13565185077016
20
-1354.0000000000005
42
0.99999999999999989
10
345.99999999999994
20
-1351.1356518507691
10
345.99999999999994
20
-1342.0000000000005
10
411.99999999999994
20
-1342.0000000000002
10
412
20
-1351.1356518507687
42
0.99999999999999989
10
414.86434814922944
20
-1354.0000000000005
10
478
20
-1354.0000000000005
10
478.00000000000006
20
-1390.0000000000002
42
-0.41421356237309503
10
474
20
-1394.0000000000005
10
91.999999999999957
20
-1394.0000000000005
42
0.41421356237302348
10
87.999999999999744
20
-1398
10
87.999999999999986
20
-1704
42
0.4142135623730443
10
91.999999999999957
20
-1708
10
474
20
-1708
42
-0.41421356237309503
10
478
20
-1712.0000000000002
10
478
20
-1748.0000000000005
10
414.8643481492312
20
-1748
42
0.99999999999999989
10
412
20
-1750.86434814923
10
411.99999999999994
20
-1760.0000000000002
10
345.99999999999994
20
-1760.0000000000002
10
345.99999999999989
20
-1750.8643481492297
42
0.99999999999999989
10
343.13565185076845
20
-1748
10
282.86434814923143
20
-1748.0000000000005
42
0.99999999999999989
10
279.99999999999989
20
-1750.8643481492297
10
279.99999999999994
20
-1760.0000000000002
10
213.99999999999994
20
-1760.0000000000002
10
213.99999999999991
20
-1750.8643481492297
42
0.99999999999999989
10
211.13565185076834
20
-1748.0000000000005
10
150.86434814923152
20
-1748.0000000000005
42
1.0000000105367122
10
147.99999999999991
20
-1750.8643481492297
10
147.99999999999997
20
-1760.0000000000002
10
81.999999999999957
20
-1760.0000000000002
10
81.999999999999957
20
-1750.8643481492297
42
1.0000000105367122
10
79.135651850768355
20
-1748.0000000000005
10
27.999999999999986
20
-1748
10
28.000000000000004
20
-1685.26434814923
42
1.0000000105367122
10
25.135651850768717
20
-1682.4000000000003
10
15.999999999999943
20
-1682.4000000000003
10
16.000000000000014
20
-1604.8000000000002
10
25.135651850770422
20
-1604.8000000000002
42
0.99999999999999989
10
28.000000000000075
20
-1601.9356518507689
10
27.999999999999787
20
-1500.0643481492302
42
0.99999999999999989
10
25.135651850768674
20
-1497.2000000000003
10
15.999999999999943
20
-1497.2000000000003
10
15.999999999999943
20
-1419.6000000000004
10
25.135651850770138
20
-1419.6000000000001
42
0.99999999999999989
10
28.000000000000014
20
-1416.735651850769
10
27.999999999999972
20
-1354.0000000000005
10
79.13565185077006
20
-1354
42
0.99999999999999989
10
81.999999999999972
20
-1351.1356518507691
10
82.000000000000028
20
-1342.0000000000005
10
147.99999999999997
20
-1342.0000000000002
10
147.99999999999994
20
-1351.1356518507691
42
0.99999999999999989
10
150.86434814922981
20
-1354
10
211.13565185076996
20
-1354
42
0.99999999999999989
10
213.99999999999989
20
-1351.1356518507691
10
213.99999999999989
20
-1342.0000000000005
10
279.99999999999994
20
-1342.0000000000002
0
LWPOLYLINE
5
105
100
AcDbEntity
8
PERIMETER D 18.00
100
AcDbPolyline
90
10
70
1
43
0.0
10
16.000000000000014
20
-1796.0000000000002
10
78
20
-1796.0000000000002
10
78.000000000000014
20
-1776.0000000000002
10
444
20
-1776.0000000000002
42
-0.41421356237309503
10
446
20
-1778
10
445.99999999999989
20
-2204
42
-0.41421356237313667
10
444
20
-2206
10
78.000000000000043
20
-2206
10
78
20
-2186
10
16.000000000000014
20
-2186
0
LWPOLYLINE
5
106
100
AcDbEntity
8
PERIMETER D 18.00
100
AcDbPolyline
90
6
70
1
43
0.0
10
16.000000000000099
20
-2348.542661188575
42
0.41421356237309503
10
21.000000000000099
20
-2353.542661188575
10
441.00000000000011
20
-2353.542661188575
42
0.41421356237309503
10
446.00000000000011
20
-2348.542661188575
10
446.00000000000011
20
-2222
10
16.000000000000085
20
-2222.0000000000005
0
LWPOLYLINE
5
107
100
AcDbEntity
8
INSETS D 12.00
100
AcDbPolyline
90
8
70
1
43
0.0
10
432.86434814923041
20
-37.000000000000036
42
0.99999999999999989
10
430
20
-39.86434814923048
10
429.99999999999994
20
-52.135651850769491
42
0.99999998946328783
10
432.86434814923018
20
-55.000000000000028
10
493.13565185076953
20
-54.999999999999993
42
0.99999999999999989
10
495.99999999999994
20
-52.135651850769506
10
495.99999999999994
20
-39.864348149230516
42
0.99999998946328783
10
493.13565185076953
20
-36.999999999999979
0
LWPOLYLINE
5
108
100
AcDbEntity
8
INSETS D 12.00
100
AcDbPolyline
90
8
70
1
43
0.0
10
693.99999999999989
20
-409.86434814923058
10
693.99999999999989
20
-422.13565185076959
42
0.99999999999999989
10
696.86434814923064
20
-425.00000000000006
10
757.13565185076948
20
-425
42
0.99999999999999989
10
760
20
-422.13565185076959
10
760
20
-409.86434814923058
42
0.99999999999999989
10
757.13565185076959
20
-406.99999999999989
10
696.8643481492303
20
-407
42
0.99999999999999989
0
LWPOLYLINE
5
109
100
AcDbEntity
8
INSETS D 12.00
100
AcDbPolyline
90
8
70
1
43
0.0
10
561.99999999999989
20
-409.86434814923041
10
561.99999999999989
20
-422.13565185076959
42
0.99999998946328783
10
564.86434814923052
20
-425
10
625.13565185076936
20
-425
42
0.99999998946328783
10
628.00000000000011
20
-422.13565185076965
10
628
20
-409.86434814923058
42
0.99999999999999989
10
625.13565185076959
20
-406.99999999999983
10
564.86434814923041
20
-407
42
0.99999999999999989
0
LWPOLYLINE
5
10A
100
AcDbEntity
8
INSETS D 12.00
100
AcDbPolyline
90
8
70
1
43
0.0
10
561.99999999999989
20
-39.864348149230516
10
561.99999999999989
20
-52.135651850769484
42
0.99999998946328783
10
564.86434814923018
20
-55.000000000000078
10
625.13565185076948
20
-54.999999999999986
42
0.99999999999999989
10
628
20
-52.13565185076952
10
628
20
-39.864348149230509
42
0.99999999999999989
10
625.13565185076959
20
-36.999999999999915
10
564.86434814923041
20
-37.000000000000014
42
1.0000000105367122
0
LWPOLYLINE
5
10B
100
AcDbEntity
8
INSETS D 12.00
100
AcDbPolyline
90
8
70
1
43
0.0
10
429.99999999999994
20
-409.86434814923041
10
429.99999999999994
20
-422.13565185076948
42
0.99999999999999989
10
432.86434814923047
20
-425.00000000000006
10
493.13565185076948
20
-425
42
0.99999999999999989
10
496
20
-422.13565185076959
10
495.99999999999994
20
-409.86434814923041
42
0.99999999999999989
10
493.13565185076953
20
-406.99999999999994
10
432.86434814923041
20
-407
42
0.99999999999999989
0
LWPOLYLINE
5
10C
100
AcDbEntity
8
INSETS D 12.00
100
AcDbPolyline
90
8
70
1
43
0.0
10
693.99999999999989
20
-39.864348149230501
10
693.99999999999989
20
-52.135651850769484
42
0.99999999999999989
10
696.8643481492303
20
-54.999999999999957
10
757.13565185076959
20
-54.999999999999986
42
0.99999999999999989
10
760.00000000000011
20
-52.135651850769456
10
760
20
-39.864348149230551
42
1.0000000105367122
10
757.13565182942875
20
-37.000000021340846
10
696.86434814923041
20
-37.000000000000007
42
1.0000000105367122
0
LWPOLYLINE
5
10D
100
AcDbEntity
8
INSETS D 12.00
100
AcDbPolyline
90
8
70
1
43
0.0
10
345.99999999999994
20
-855.86434814923064
10
345.99999999999994
20
-868.13565185076936
42
1.0000000105367122
10
348.86434814923041
20
-871
10
409.13565185076948
20
-871
42
1.0000000105367122
10
411.99999999999977
20
-868.13565185076936
10
411.99999999999994
20
-855.86434814923052
42
0.99999999999999989
10
409.13565185076942
20
-853
10
348.8643481492303
20
-853.00000000000011
42
0.99999999999999989
0
LWPOLYLINE
5
10E
100
AcDbEntity
8
INSETS D 12.00
100
AcDbPolyline
90
8
70
1
43
0.0
10
214
20
-855.86434814923052
10
214
20
-868.13565185076959
42
0.99999999999999989
10
216.86434814923049
20
-871.00000000000011
10
277.13565185076959
20
-871
42
0.99999999999999989
10
280.00000000000006
20
-868.13565185076959
10
280
20
-855.86434814923064
42
1.0000000105367122
10
277.13565185076953
20
-853.00000000000011
10
216.86434814923047
20
-853.00000000000011
42
0.99999998946328783
0
LWPOLYLINE
5
10F
100
AcDbEntity
8
INSETS D 12.00
100
AcDbPolyline
90
8
70
1
43
0.0
10
216.86434814923047
20
-483.00000000000011
42
0.99999999999999989
10
213.99999999999983
20
-485.86434814923024
10
213.99999999999994
20
-498.13565185076953
42
0.99999999999999989
10
216.86434814923044
20
-501.00000000000017
10
277.13565185076948
20
-501
42
0.99999998946328783
10
280.00000000000006
20
-498.13565185076982
10
279.99999999999994
20
-485.86434814923047
42
0.99999999999999989
10
277.13565185076948
20
-482.99999999999989
0
LWPOLYLINE
5
110
100
AcDbEntity
8
INSETS D 12.00
100
AcDbPolyline
90
8
70
1
43
0.0
10
84.864348149230466
20
-483.00000000000011
42
0.99999999999999989
10
81.999999999999858
20
-485.86434814923024
10
81.999999999999957
20
-498.13565185076953
42
0.99999999999999989
10
84.864348149230437
20
-501.00000000000017
10
145.13565185076945
20
-501
42
0.99999999999999989
10
148
20
-498.13565185076976
10
147.99999999999994
20
-485.86434814923052
42
0.99999999999999989
10
145.13565185076951
20
-482.99999999999989
0
LWPOLYLINE
5
111
100
AcDbEntity
8
INSETS D 12.00
100
AcDbPolyline
90
8
70
1
43
0.0
10
348.86434814923041
20
-483.00000000000006
42
0.99999999999999989
10
345.99999999999989
20
-485.86434814923058
10
345.99999999999994
20
-498.13565185076953
42
0.99999999999999989
10
348.86434814923035
20
-500.99999999999994
10
409.13565185076948
20
-501
42
0.99999999999999989
10
411.99999999999989
20
-498.13565185076948
10
411.99999999999994
20
-485.86434814923052
42
0.99999999999999989
10
409.13565185076942
20
-483.00000000000011
0
LWPOLYLINE
5
112
100
AcDbEntity
8
INSETS D 12.00
100
AcDbPolyline
90
8
70
1
43
0.0
10
81.999999999999972
20
-855.86434814923052
10
81.999999999999972
20
-868.13565185076959
42
0.99999999999999989
10
84.864348149230381
20
-871.00000000000011
10
145.13565185076953
20
-871
42
0.99999999999999989
10
147.99999999999994
20
-868.13565185076959
10
147.99999999999997
20
-855.86434814923052
42
0.99999998946328783
10
145.13565185076953
20
-853
10
84.864348149230409
20
-853.00000000000011
42
0.99999999999999989
0
LWPOLYLINE
5
113
100
AcDbEntity
8
INSETS D 12.00
100
AcDbPolyline
90
8
70
1
43
0.0
10
406.99999999999994
20
-2119.5356518507701
42
0.99999999999999989
10
409.86434814923052
20
-2122.3999999999996
10
422.13565185076965
20
-2122.4000000000001
42
0.99999999999999989
10
425
20
-2119.5356518507697
10
425
20
-2047.6643481492306
42
0.99999999999999989
10
422.13565185076965
20
-2044.8
10
409.86434814923058
20
-2044.8000000000002
42
0.99999999999999989
10
406.99999999999955
20
-2047.6643481492304
0
LWPOLYLINE
5
114
100
AcDbEntity
8
INSETS D 12.00
100
AcDbPolyline
90
8
70
1
43
0.0
10
37.000000000000071
20
-1934.3356518507699
42
0.99999999999999989
10
39.864348170571596
20
-1937.1999999786592
10
52.135651850769435
20
-1937.2000000000003
42
0.99999999999999989
10
54.999999999999957
20
-1934.3356518507699
10
55
20
-1862.4643481492308
42
0.99999998946328783
10
52.135651850769406
20
-1859.6000000000006
10
39.864348149230381
20
-1859.6000000000004
42
0.99999999999999989
10
37.000000000000021
20
-1862.4643481492308
0
LWPOLYLINE
5
115
100
AcDbEntity
8
INSETS D 12.00
100
AcDbPolyline
90
8
70
1
43
0.0
10
36.999999999999943
20
-2119.5356518507697
42
0.99999999999999989
10
39.864348149230565
20
-2122.4000000000001
10
52.135651850769648
20
-2122.4000000000001
42
0.99999998946328783
10
55.000000021341073
20
-2119.5356518721105
10
55
20
-2047.6643481492306
42
0.99999999999999989
10
52.135651850769491
20
-2044.8000000000002
10
39.864348149230594
20
-2044.8000000000002
42
0.99999999999999989
10
36.999999978659019
20
-2047.6643481278895
0
LWPOLYLINE
5
116
100
AcDbEntity
8
INSETS D 12.00
100
AcDbPolyline
90
8
70
1
43
0.0
10
407
20
-1934.3356518507696
42
0.99999999999999989
10
409.86434814923041
20
-1937.2000000000005
10
422.13565185076948
20
-1937.2000000000003
42
0.99999998946328783
10
425.00000000000011
20
-1934.3356518507701
10
425
20
-1862.4643481492308
42
0.99999999999999989
10
422.13565185076953
20
-1859.6000000000006
10
409.86434814923035
20
-1859.6000000000004
42
0.99999999999999989
10
407.00000002134107
20
-1862.4643481705718
0
ENDSEC
0
SECTION
2
OBJECTS
0
DICTIONARY
5
C
100
AcDbDictionary
3
ACAD_GROUP
350
D
3
ACAD_MLINESTYLE
350
17
0
DICTIONARY
5
D
100
AcDbDictionary
0
DICTIONARY
5
1A
330
C
100
AcDbDictionary
0
DICTIONARY
5
17
100
AcDbDictionary
0
ENDSEC
0
EOF
