0
SECTION
2
HEADER
9
$INSUNITS
70
4
9
$ACADVER
1
AC1014
9
$HANDSEED
5
FFFF
0
ENDSEC
0
SECTION
2
TABLES
0
TABLE
2
VPORT
5
8
100
AcDbSymbolTable
0
ENDTAB
0
TABLE
2
LTYPE
5
5
100
AcDbSymbolTable
0
LTYPE
5
14
100
AcDbSymbolTableRecord
100
AcDbLinetypeTableRecord
2
BYBLOCK
70
0
0
LTYPE
5
15
100
AcDbSymbolTableRecord
100
AcDbLinetypeTableRecord
2
BYLAYER
70
0
0
LTYPE
5
16
100
AcDbSymbolTableRecord
100
AcDbLinetypeTableRecord
2
DASHED
70
0
3
Dashed __ __ __ __ __ __ __ __ __ __ __ __ __ _
72
65
73
2
40
0.75
49
0.5
74
0
49
-0.25
74
0
0
ENDTAB
0
TABLE
2
LAYER
5
2
100
AcDbSymbolTable
70
3
0
LAYER
5
50
100
AcDbSymbolTableRecord
100
AcDbLayerTableRecord
2
0
70
0
6
CONTINUOUS
0
LAYER
5
51
100
AcDbSymbolTableRecord
100
AcDbLayerTableRecord
2
BOARDS
70
0
6
CONTINUOUS
0
LAYER
5
52
100
AcDbSymbolTableRecord
100
AcDbLayerTableRecord
2
PERIMETER D 12.000
70
0
62
5
6
CONTINUOUS
0
ENDTAB
0
TABLE
2
STYLE
5
3
100
AcDbSymbolTable
0
STYLE
5
11
100
AcDbSymbolTableRecord
100
AcDbTextStyleTableRecord
2
STANDARD
70
0
0
ENDTAB
0
TABLE
2
VIEW
5
6
100
AcDbSymbolTable
0
ENDTAB
0
TABLE
2
UCS
5
7
100
AcDbSymbolTable
0
ENDTAB
0
TABLE
2
APPID
5
9
100
AcDbSymbolTable
0
APPID
5
12
100
AcDbSymbolTableRecord
100
AcDbRegAppTableRecord
2
ACAD
70
0
0
ENDTAB
0
TABLE
2
DIMSTYLE
5
A
100
AcDbSymbolTable
0
ENDTAB
0
TABLE
2
BLOCK_RECORD
5
1
100
AcDbSymbolTable
0
BLOCK_RECORD
5
1F
100
AcDbSymbolTableRecord
100
AcDbBlockTableRecord
2
*MODEL_SPACE
0
BLOCK_RECORD
5
1B
100
AcDbSymbolTableRecord
100
AcDbBlockTableRecord
2
*PAPER_SPACE
0
ENDTAB
0
ENDSEC
0
SECTION
2
BLOCKS
0
BLOCK
5
20
100
AcDbEntity
100
AcDbBlockBegin
2
*MODEL_SPACE
0
ENDBLK
5
21
100
AcDbEntity
100
AcDbBlockEnd
0
BLOCK
5
1C
100
AcDbEntity
100
AcDbBlockBegin
2
*PAPER_SPACE
0
ENDBLK
5
1D
100
AcDbEntity
100
AcDbBlockEnd
0
ENDSEC
0
SECTION
2
ENTITIES
0
LWPOLYLINE
5
100
100
AcDbEntity
8
BOARDS
100
AcDbPolyline
90
4
70
1
43
0.0
10
0
20
0
10
760
20
0
10
760
20
-4000
10
0
20
-4000
0
LWPOLYLINE
5
101
100
AcDbEntity
8
PERIMETER D 12.000
100
AcDbPolyline
90
4
70
1
43
0.0
10
24.000000000000128
20
-1978
10
24.000000000000007
20
-24.000000000000057
10
654
20
-24.000000000000057
10
654
20
-1978
0
LWPOLYLINE
5
102
100
AcDbEntity
8
PERIMETER D 12.000
100
AcDbPolyline
90
4
70
1
43
0.0
10
62.000000000000064
20
-3956
10
61.99999999999995
20
-2002.0000000000005
10
23.99999999999995
20
-2002.0000000000005
10
24.000000000000071
20
-3956
0
LWPOLYLINE
5
103
100
AcDbEntity
8
PERIMETER D 12.000
100
AcDbPolyline
90
4
70
1
43
0.0
10
124.00000000000004
20
-3756.0000000000009
10
123.99999999999993
20
-2002.0000000000007
10
85.999999999999943
20
-2002.0000000000005
10
86.000000000000057
20
-3756
0
LWPOLYLINE
5
104
100
AcDbEntity
8
PERIMETER D 12.000
100
AcDbPolyline
90
4
70
1
43
0.0
10
148
20
-2002.0000000000002
10
148.00000000000006
20
-2790
10
186.00000000000006
20
-2790
10
186
20
-2002.0000000000002
0
LWPOLYLINE
5
105
100
AcDbEntity
8
PERIMETER D 12.000
100
AcDbPolyline
90
4
70
1
43
0.0
10
209.99999999999997
20
-2002.0000000000002
10
380
20
-2002.0000000000002
10
380
20
-2202
10
209.99999999999997
20
-2202
0
LWPOLYLINE
5
106
100
AcDbEntity
8
PERIMETER D 12.000
100
AcDbPolyline
90
4
70
1
43
0.0
10
148
20
-2814.0000000000005
10
148.00000000000006
20
-3420
10
186.00000000000006
20
-3420.0000000000005
10
186
20
-2814.0000000000005
0
LWPOLYLINE
5
107
100
AcDbEntity
8
PERIMETER D 12.000
100
AcDbPolyline
90
4
70
1
43
0.0
10
186.00000000000006
20
-3620.0000000000005
10
186.00000000000006
20
-3444.0000000000009
10
148.00000000000003
20
-3444.0000000000009
10
148.00000000000006
20
-3620.0000000000005
0
LWPOLYLINE
5
108
100
AcDbEntity
8
PERIMETER D 12.000
100
AcDbPolyline
90
4
70
1
43
0.0
10
85.999999999999972
20
-3780
10
86
20
-3962
10
124
20
-3962
10
123.99999999999999
20
-3780
0
ENDSEC
0
SECTION
2
OBJECTS
0
DICTIONARY
5
C
100
AcDbDictionary
3
ACAD_GROUP
350
D
3
ACAD_MLINESTYLE
350
17
0
DICTIONARY
5
D
100
AcDbDictionary
0
DICTIONARY
5
1A
330
C
100
AcDbDictionary
0
DICTIONARY
5
17
100
AcDbDictionary
0
ENDSEC
0
EOF
