0
SECTION
2
HEADER
9
$INSUNITS
70
4
9
$ACADVER
1
AC1014
9
$HANDSEED
5
FFFF
0
ENDSEC
0
SECTION
2
TABLES
0
TABLE
2
VPORT
5
8
100
AcDbSymbolTable
0
ENDTAB
0
TABLE
2
LTYPE
5
5
100
AcDbSymbolTable
0
LTYPE
5
14
100
AcDbSymbolTableRecord
100
AcDbLinetypeTableRecord
2
BYBLOCK
70
0
0
LTYPE
5
15
100
AcDbSymbolTableRecord
100
AcDbLinetypeTableRecord
2
BYLAYER
70
0
0
LTYPE
5
16
100
AcDbSymbolTableRecord
100
AcDbLinetypeTableRecord
2
DASHED
70
0
3
Dashed __ __ __ __ __ __ __ __ __ __ __ __ __ _
72
65
73
2
40
0.75
49
0.5
74
0
49
-0.25
74
0
0
ENDTAB
0
TABLE
2
LAYER
5
2
100
AcDbSymbolTable
70
7
0
LAYER
5
50
100
AcDbSymbolTableRecord
100
AcDbLayerTableRecord
2
0
70
0
6
CONTINUOUS
0
LAYER
5
51
100
AcDbSymbolTableRecord
100
AcDbLayerTableRecord
2
BOARDS
70
0
6
CONTINUOUS
0
LAYER
5
52
100
AcDbSymbolTableRecord
100
AcDbLayerTableRecord
2
PERIMETER D 16.00
70
0
62
5
6
CONTINUOUS
0
LAYER
5
53
100
AcDbSymbolTableRecord
100
AcDbLayerTableRecord
2
INSETS D 12.00
70
0
62
3
6
CONTINUOUS
0
LAYER
5
54
100
AcDbSymbolTableRecord
100
AcDbLayerTableRecord
2
CUTOUTS D 16.00
70
0
62
1
6
CONTINUOUS
0
LAYER
5
55
100
AcDbSymbolTableRecord
100
AcDbLayerTableRecord
2
HOLES DIAM 4.00 D 16.00
70
0
62
1
6
CONTINUOUS
0
LAYER
5
56
100
AcDbSymbolTableRecord
100
AcDbLayerTableRecord
2
PERIMETER D 16.10
70
0
62
5
6
CONTINUOUS
0
ENDTAB
0
TABLE
2
STYLE
5
3
100
AcDbSymbolTable
0
STYLE
5
11
100
AcDbSymbolTableRecord
100
AcDbTextStyleTableRecord
2
STANDARD
70
0
0
ENDTAB
0
TABLE
2
VIEW
5
6
100
AcDbSymbolTable
0
ENDTAB
0
TABLE
2
UCS
5
7
100
AcDbSymbolTable
0
ENDTAB
0
TABLE
2
APPID
5
9
100
AcDbSymbolTable
0
APPID
5
12
100
AcDbSymbolTableRecord
100
AcDbRegAppTableRecord
2
ACAD
70
0
0
ENDTAB
0
TABLE
2
DIMSTYLE
5
A
100
AcDbSymbolTable
0
ENDTAB
0
TABLE
2
BLOCK_RECORD
5
1
100
AcDbSymbolTable
0
BLOCK_RECORD
5
1F
100
AcDbSymbolTableRecord
100
AcDbBlockTableRecord
2
*MODEL_SPACE
0
BLOCK_RECORD
5
1B
100
AcDbSymbolTableRecord
100
AcDbBlockTableRecord
2
*PAPER_SPACE
0
ENDTAB
0
ENDSEC
0
SECTION
2
BLOCKS
0
BLOCK
5
20
100
AcDbEntity
100
AcDbBlockBegin
2
*MODEL_SPACE
0
ENDBLK
5
21
100
AcDbEntity
100
AcDbBlockEnd
0
BLOCK
5
1C
100
AcDbEntity
100
AcDbBlockBegin
2
*PAPER_SPACE
0
ENDBLK
5
1D
100
AcDbEntity
100
AcDbBlockEnd
0
ENDSEC
0
SECTION
2
ENTITIES
0
LWPOLYLINE
5
100
100
AcDbEntity
8
BOARDS
100
AcDbPolyline
90
4
70
1
43
0.0
10
0
20
0
10
2800
20
0
10
2800
20
-2070
10
0
20
-2070
0
LWPOLYLINE
5
101
100
AcDbEntity
8
BOARDS
100
AcDbPolyline
90
4
70
1
43
0.0
10
0
20
-2110.6399999999999
10
2800
20
-2110.6399999999999
10
2800
20
-4180.6399999999994
10
0
20
-4180.6399999999994
0
LWPOLYLINE
5
102
100
AcDbEntity
8
PERIMETER D 16.00
100
AcDbPolyline
90
6
70
1
43
0.0
10
728
20
-66.000000000000014
42
0.41421356237309503
10
678
20
-16.000000000000014
10
65.999999999999943
20
-16.000000000000014
42
0.41421356237309503
10
15.999999999999943
20
-66.000000000000014
10
15.999999999999943
20
-516
10
728
20
-516
0
LWPOLYLINE
5
103
100
AcDbEntity
8
PERIMETER D 16.00
100
AcDbPolyline
90
6
70
1
43
0.0
10
1456.0000000000002
20
-516
10
1456.0000000000002
20
-66.000000000000014
42
0.41421356237309503
10
1406.0000000000002
20
-16.000000000000021
10
794.00000000000023
20
-15.999999999999979
42
0.41421356237309587
10
744
20
-66.000000000000014
10
744
20
-516
0
LWPOLYLINE
5
104
100
AcDbEntity
8
PERIMETER D 16.00
100
AcDbPolyline
90
28
70
1
43
0.0
10
1872.0000000000002
20
-289.5
42
0.99999999999999989
10
1872.0000000000002
20
-293.55079999999998
10
1872.0000000000002
20
-305.60000000000002
10
1772.0000000000002
20
-305.60000000000002
10
1772.0000000000002
20
-293.55079999999998
42
0.99999999999999989
10
1772.0000000000002
20
-289.5
10
1672.0000000000002
20
-289.5
42
0.99999999999999989
10
1672.0000000000002
20
-293.55079999999998
10
1672.0000000000002
20
-305.60000000000002
10
1572.0000000000002
20
-305.60000000000002
10
1572.0000000000002
20
-293.6508
42
0.99999999999999989
10
1572.0000000000002
20
-289.60000000000002
10
1472.0000000000002
20
-289.60000000000002
10
1472.0000000000002
20
-31.999999999999993
10
1572.0000000000002
20
-31.999999999999993
42
0.99999999999999989
10
1572.0000000000002
20
-27.949200000000005
10
1572.0000000000002
20
-15.999999999999979
10
1672.0000000000002
20
-15.999999999999979
10
1672.0000000000002
20
-27.949200000000012
42
0.99999999999999989
10
1672.0000000000002
20
-32
10
1772.0000000000002
20
-31.999999999999993
42
0.99999999999999989
10
1772.0000000000002
20
-27.949200000000005
10
1772.0000000000002
20
-15.999999999999979
10
1872.0000000000002
20
-15.999999999999979
10
1872.0000000000002
20
-27.949200000000012
42
0.99999999999999989
10
1872.0000000000002
20
-32
10
1972.0000000000002
20
-31.999999999999993
10
1972.0000000000002
20
-289.5
0
LWPOLYLINE
5
105
100
AcDbEntity
8
PERIMETER D 16.00
100
AcDbPolyline
90
28
70
1
43
0.0
10
1572.0000000000002
20
-599.1508
42
0.99999999999999989
10
1572.0000000000002
20
-595.10000000000002
10
1472.0000000000002
20
-595.10000000000002
10
1472.0000000000002
20
-337.60000000000002
10
1572.0000000000002
20
-337.60000000000002
42
0.99999999999999989
10
1572.0000000000002
20
-333.54920000000004
10
1572.0000000000002
20
-321.60000000000002
10
1672.0000000000002
20
-321.59999999999997
10
1672.0000000000002
20
-333.54919999999998
42
0.99999999999999989
10
1672.0000000000002
20
-337.60000000000002
10
1772.0000000000002
20
-337.60000000000002
42
0.99999999999999989
10
1772.0000000000002
20
-333.54920000000004
10
1772.0000000000002
20
-321.60000000000002
10
1872.0000000000002
20
-321.59999999999997
10
1872.0000000000002
20
-333.54919999999998
42
0.99999999999999989
10
1872.0000000000002
20
-337.60000000000002
10
1972.0000000000002
20
-337.60000000000002
10
1972.0000000000002
20
-595.20000000000005
10
1872.0000000000002
20
-595.20000000000005
42
0.99999999999999989
10
1872.0000000000002
20
-599.25080000000003
10
1872.0000000000002
20
-611.20000000000005
10
1772.0000000000002
20
-611.20000000000005
10
1772.0000000000002
20
-599.1508
42
0.99999999999999989
10
1772.0000000000002
20
-595.10000000000002
10
1672.0000000000002
20
-595.10000000000002
42
0.99999999999999989
10
1672.0000000000002
20
-599.1508
10
1672.0000000000002
20
-611.20000000000005
10
1572.0000000000002
20
-611.20000000000005
0
LWPOLYLINE
5
106
100
AcDbEntity
8
PERIMETER D 16.00
100
AcDbPolyline
90
6
70
1
43
0.0
10
728
20
-582
42
0.41421356237309503
10
678
20
-532
10
65.999999999999943
20
-532
42
0.41421356237309503
10
15.999999999999943
20
-582
10
15.999999999999943
20
-1032
10
728
20
-1032
0
LWPOLYLINE
5
107
100
AcDbEntity
8
PERIMETER D 16.00
100
AcDbPolyline
90
6
70
1
43
0.0
10
1456.0000000000002
20
-1032
10
1456.0000000000002
20
-582
42
0.4142135623730967
10
1406.0000000000002
20
-532.00000000000034
10
794.00000000000023
20
-532
42
0.41421356237309587
10
744
20
-582
10
744
20
-1032
0
LWPOLYLINE
5
108
100
AcDbEntity
8
PERIMETER D 16.00
100
AcDbPolyline
90
28
70
1
43
0.0
10
1572.0000000000002
20
-904.75080000000003
42
0.99999999999999989
10
1572.0000000000002
20
-900.70000000000005
10
1472.0000000000002
20
-900.70000000000005
10
1472.0000000000002
20
-643.20000000000005
10
1572.0000000000002
20
-643.20000000000005
42
0.99999999999999989
10
1572.0000000000002
20
-639.14920000000006
10
1572.0000000000002
20
-627.20000000000005
10
1672.0000000000002
20
-627.20000000000005
10
1672.0000000000002
20
-639.14920000000006
42
0.99999999999999989
10
1672.0000000000002
20
-643.20000000000005
10
1772.0000000000002
20
-643.20000000000005
42
0.99999999999999989
10
1772.0000000000002
20
-639.14920000000006
10
1772.0000000000002
20
-627.20000000000005
10
1872.0000000000002
20
-627.20000000000005
10
1872.0000000000002
20
-639.14920000000006
42
0.99999999999999989
10
1872.0000000000002
20
-643.20000000000005
10
1972.0000000000002
20
-643.20000000000005
10
1972.0000000000002
20
-900.80000000000018
10
1872.0000000000002
20
-900.79999999999995
42
0.99999999999999989
10
1872.0000000000002
20
-904.85079999999994
10
1872.0000000000002
20
-916.80000000000007
10
1772.0000000000002
20
-916.80000000000007
10
1772.0000000000002
20
-904.75080000000003
42
0.99999999999999989
10
1772.0000000000002
20
-900.70000000000005
10
1672.0000000000002
20
-900.70000000000005
42
0.99999999999999989
10
1672.0000000000002
20
-904.75080000000003
10
1672.0000000000002
20
-916.80000000000007
10
1572.0000000000002
20
-916.80000000000007
0
LWPOLYLINE
5
109
100
AcDbEntity
8
PERIMETER D 16.00
100
AcDbPolyline
90
28
70
1
43
0.0
10
1572.0000000000002
20
-1210.3508000000002
42
0.99999999999999989
10
1572.0000000000002
20
-1206.3000000000002
10
1472.0000000000002
20
-1206.3000000000002
10
1472.0000000000002
20
-948.80000000000018
10
1572.0000000000002
20
-948.80000000000018
42
0.99999999999999989
10
1572.0000000000002
20
-944.7492000000002
10
1572.0000000000002
20
-932.8000000000003
10
1672.0000000000002
20
-932.80000000000018
10
1672.0000000000002
20
-944.7492000000002
42
0.99999999999999989
10
1672.0000000000002
20
-948.80000000000018
10
1772.0000000000002
20
-948.80000000000018
42
0.99999999999999989
10
1772.0000000000002
20
-944.7492000000002
10
1772.0000000000002
20
-932.8000000000003
10
1872.0000000000002
20
-932.80000000000018
10
1872.0000000000002
20
-944.7492000000002
42
0.99999999999999989
10
1872.0000000000002
20
-948.80000000000018
10
1972.0000000000002
20
-948.80000000000018
10
1972.0000000000002
20
-1206.4000000000003
10
1872.0000000000002
20
-1206.4000000000001
42
0.99999999999999989
10
1872.0000000000002
20
-1210.4508000000001
10
1872.0000000000002
20
-1222.4000000000003
10
1772.0000000000002
20
-1222.4000000000003
10
1772.0000000000002
20
-1210.3508000000002
42
0.99999999999999989
10
1772.0000000000002
20
-1206.3000000000002
10
1672.0000000000002
20
-1206.3000000000002
42
0.99999999999999989
10
1672.0000000000002
20
-1210.3508000000002
10
1672.0000000000002
20
-1222.4000000000003
10
1572.0000000000002
20
-1222.4000000000003
0
LWPOLYLINE
5
10A
100
AcDbEntity
8
PERIMETER D 16.00
100
AcDbPolyline
90
6
70
1
43
0.0
10
728
20
-1098
42
0.41421356237309503
10
678
20
-1048
10
65.999999999999943
20
-1048
42
0.41421356237309503
10
15.999999999999943
20
-1098
10
15.999999999999943
20
-1548
10
728
20
-1548
0
LWPOLYLINE
5
10B
100
AcDbEntity
8
PERIMETER D 16.00
100
AcDbPolyline
90
6
70
1
43
0.0
10
1456.0000000000002
20
-1548
10
1456.0000000000002
20
-1098
42
0.4142135623730967
10
1406.0000000000002
20
-1048.0000000000005
10
794.00000000000023
20
-1048
42
0.41421356237309587
10
744
20
-1098
10
744
20
-1548
0
LWPOLYLINE
5
10C
100
AcDbEntity
8
PERIMETER D 16.00
100
AcDbPolyline
90
28
70
1
43
0.0
10
416.00000000000011
20
-1837.5
42
0.99999999999999989
10
416.00000000000011
20
-1841.5508
10
416.00000000000011
20
-1853.6000000000001
10
316.00000000000011
20
-1853.5999999999999
10
316.00000000000006
20
-1841.5507999999998
42
0.99999999999999989
10
316.00000000000006
20
-1837.5
10
216.00000000000006
20
-1837.5
42
0.99999999999999989
10
216.00000000000006
20
-1841.5508
10
216.00000000000006
20
-1853.6000000000001
10
116.00000000000006
20
-1853.5999999999999
10
116.00000000000006
20
-1841.6507999999999
42
0.99999999999999989
10
116.00000000000006
20
-1837.5999999999999
10
16.00000000000005
20
-1837.5999999999999
10
16.00000000000005
20
-1580
10
116.00000000000006
20
-1580
42
0.99999999999999989
10
116.00000000000006
20
-1575.9492
10
116.00000000000006
20
-1564
10
216.00000000000006
20
-1564
10
216.00000000000006
20
-1575.9492
42
0.99999999999999989
10
216.00000000000006
20
-1580
10
316.00000000000006
20
-1580
42
0.99999999999999989
10
316.00000000000006
20
-1575.9492
10
316.00000000000006
20
-1564
10
416.00000000000011
20
-1564
10
416.00000000000011
20
-1575.9492
42
0.99999999999999989
10
416.00000000000011
20
-1580
10
516.00000000000011
20
-1580
10
516.00000000000011
20
-1837.5
0
LWPOLYLINE
5
10D
100
AcDbEntity
8
PERIMETER D 16.00
100
AcDbPolyline
90
28
70
1
43
0.0
10
1144
20
-1837.5
42
0.99999999999999989
10
1144
20
-1841.5508
10
1144
20
-1853.6000000000001
10
1044
20
-1853.5999999999999
10
1044
20
-1841.5507999999998
42
0.99999999999999989
10
1044
20
-1837.5
10
944
20
-1837.5
42
0.99999999999999989
10
944
20
-1841.5508
10
944
20
-1853.6000000000001
10
844
20
-1853.5999999999999
10
844
20
-1841.6507999999999
42
0.99999999999999989
10
844
20
-1837.5999999999999
10
744
20
-1837.5999999999999
10
744
20
-1580
10
844
20
-1580
42
0.99999999999999989
10
844
20
-1575.9492
10
844
20
-1564
10
944
20
-1564
10
944
20
-1575.9492
42
0.99999999999999989
10
944
20
-1580
10
1044
20
-1580
42
0.99999999999999989
10
1044
20
-1575.9492
10
1044
20
-1564
10
1144
20
-1564
10
1144
20
-1575.9492
42
0.99999999999999989
10
1144
20
-1580
10
1244
20
-1580
10
1244
20
-1837.5
0
LWPOLYLINE
5
10E
100
AcDbEntity
8
INSETS D 12.00
100
AcDbPolyline
90
8
70
1
43
0.0
10
1572.0000000000002
20
-52.150799999999933
10
1572.0000000000002
20
-60.149199999999965
42
0.99999999999999989
10
1572.0000000000002
20
-64.19999999999996
10
1672.0000000000002
20
-64.199999999999946
42
0.99999999999999989
10
1672.0000000000002
20
-60.149199999999958
10
1672.0000000000002
20
-52.150799999999933
42
0.99999999999999989
10
1672.0000000000002
20
-48.099999999999945
10
1572.0000000000002
20
-48.099999999999952
42
0.99999999999999989
0
LWPOLYLINE
5
10F
100
AcDbEntity
8
INSETS D 12.00
100
AcDbPolyline
90
8
70
1
43
0.0
10
1572.0000000000002
20
-180.95079999999996
10
1572.0000000000002
20
-188.94919999999996
42
0.99999999999999989
10
1572.0000000000002
20
-192.99999999999997
10
1672.0000000000002
20
-192.99999999999997
42
0.99999999999999989
10
1672.0000000000002
20
-188.94919999999999
10
1672.0000000000002
20
-180.95079999999999
42
0.99999999999999989
10
1672.0000000000002
20
-176.89999999999998
10
1572.0000000000002
20
-176.89999999999998
42
0.99999999999999989
0
LWPOLYLINE
5
110
100
AcDbEntity
8
INSETS D 12.00
100
AcDbPolyline
90
8
70
1
43
0.0
10
1772.0000000000002
20
-180.95079999999996
10
1772.0000000000002
20
-188.94919999999996
42
0.99999999999999989
10
1772.0000000000002
20
-192.99999999999997
10
1872.0000000000002
20
-192.99999999999997
42
0.99999999999999989
10
1872.0000000000002
20
-188.94919999999999
10
1872.0000000000002
20
-180.95079999999999
42
0.99999999999999989
10
1872.0000000000002
20
-176.89999999999998
10
1772.0000000000002
20
-176.89999999999998
42
0.99999999999999989
0
LWPOLYLINE
5
111
100
AcDbEntity
8
INSETS D 12.00
100
AcDbPolyline
90
8
70
1
43
0.0
10
1572.0000000000002
20
-245.35079999999996
10
1572.0000000000002
20
-253.3492
42
0.99999999999999989
10
1572.0000000000002
20
-257.40000000000003
10
1672.0000000000002
20
-257.40000000000003
42
0.99999999999999989
10
1672.0000000000002
20
-253.34920000000005
10
1672.0000000000002
20
-245.35079999999996
42
0.99999999999999989
10
1672.0000000000002
20
-241.29999999999998
10
1572.0000000000002
20
-241.29999999999998
42
0.99999999999999989
0
LWPOLYLINE
5
112
100
AcDbEntity
8
INSETS D 12.00
100
AcDbPolyline
90
8
70
1
43
0.0
10
1572.0000000000002
20
-148.7508
10
1572.0000000000002
20
-156.74919999999997
42
0.99999999999999989
10
1572.0000000000002
20
-160.79999999999998
10
1672.0000000000002
20
-160.79999999999998
42
0.99999999999999989
10
1672.0000000000002
20
-156.7492
10
1672.0000000000002
20
-148.7508
42
0.99999999999999989
10
1672.0000000000002
20
-144.69999999999999
10
1572.0000000000002
20
-144.69999999999999
42
0.99999999999999989
0
LWPOLYLINE
5
113
100
AcDbEntity
8
INSETS D 12.00
100
AcDbPolyline
90
8
70
1
43
0.0
10
1772.0000000000002
20
-116.55079999999991
10
1772.0000000000002
20
-124.54919999999998
42
0.99999999999999989
10
1772.0000000000002
20
-128.59999999999997
10
1872.0000000000002
20
-128.59999999999999
42
0.99999999999999989
10
1872.0000000000002
20
-124.5492
10
1872.0000000000002
20
-116.55079999999991
42
0.99999999999999989
10
1872.0000000000002
20
-112.49999999999991
10
1772.0000000000002
20
-112.49999999999993
42
0.99999999999999989
0
LWPOLYLINE
5
114
100
AcDbEntity
8
INSETS D 12.00
100
AcDbPolyline
90
8
70
1
43
0.0
10
1772.0000000000002
20
-245.35079999999996
10
1772.0000000000002
20
-253.3492
42
0.99999999999999989
10
1772.0000000000002
20
-257.39999999999998
10
1872.0000000000002
20
-257.40000000000003
42
0.99999999999999989
10
1872.0000000000002
20
-253.34920000000005
10
1872.0000000000002
20
-245.35079999999996
42
0.99999999999999989
10
1872.0000000000002
20
-241.29999999999998
10
1772.0000000000002
20
-241.29999999999998
42
0.99999999999999989
0
LWPOLYLINE
5
115
100
AcDbEntity
8
INSETS D 12.00
100
AcDbPolyline
90
8
70
1
43
0.0
10
1772.0000000000002
20
-148.7508
10
1772.0000000000002
20
-156.74919999999997
42
0.99999999999999989
10
1772.0000000000002
20
-160.79999999999998
10
1872.0000000000002
20
-160.79999999999998
42
0.99999999999999989
10
1872.0000000000002
20
-156.7492
10
1872.0000000000002
20
-148.7508
42
0.99999999999999989
10
1872.0000000000002
20
-144.69999999999999
10
1772.0000000000002
20
-144.69999999999999
42
0.99999999999999989
0
LWPOLYLINE
5
116
100
AcDbEntity
8
INSETS D 12.00
100
AcDbPolyline
90
8
70
1
43
0.0
10
1572.0000000000002
20
-116.55079999999991
10
1572.0000000000002
20
-124.54920000000001
42
0.99999999999999989
10
1572.0000000000002
20
-128.60000000000002
10
1672.0000000000002
20
-128.59999999999999
42
0.99999999999999989
10
1672.0000000000002
20
-124.5492
10
1672.0000000000002
20
-116.55079999999991
42
0.99999999999999989
10
1672.0000000000002
20
-112.49999999999991
10
1572.0000000000002
20
-112.49999999999993
42
0.99999999999999989
0
LWPOLYLINE
5
117
100
AcDbEntity
8
INSETS D 12.00
100
AcDbPolyline
90
8
70
1
43
0.0
10
1572.0000000000002
20
-213.15079999999998
10
1572.0000000000002
20
-221.14919999999998
42
0.99999999999999989
10
1572.0000000000002
20
-225.19999999999996
10
1672.0000000000002
20
-225.19999999999999
42
0.99999999999999989
10
1672.0000000000002
20
-221.14919999999998
10
1672.0000000000002
20
-213.15079999999998
42
0.99999999999999989
10
1672.0000000000002
20
-209.09999999999997
10
1572.0000000000002
20
-209.09999999999997
42
0.99999999999999989
0
LWPOLYLINE
5
118
100
AcDbEntity
8
INSETS D 12.00
100
AcDbPolyline
90
8
70
1
43
0.0
10
1772.0000000000002
20
-213.15079999999998
10
1772.0000000000002
20
-221.14919999999998
42
0.99999999999999989
10
1772.0000000000002
20
-225.19999999999996
10
1872.0000000000002
20
-225.19999999999999
42
0.99999999999999989
10
1872.0000000000002
20
-221.14919999999998
10
1872.0000000000002
20
-213.15079999999998
42
0.99999999999999989
10
1872.0000000000002
20
-209.09999999999997
10
1772.0000000000002
20
-209.09999999999997
42
0.99999999999999989
0
LWPOLYLINE
5
119
100
AcDbEntity
8
INSETS D 12.00
100
AcDbPolyline
90
8
70
1
43
0.0
10
1572.0000000000002
20
-84.350799999999921
10
1572.0000000000002
20
-92.349200000000025
42
0.99999999999999989
10
1572.0000000000002
20
-96.40000000000002
10
1672.0000000000002
20
-96.400000000000006
42
0.99999999999999989
10
1672.0000000000002
20
-92.34920000000001
10
1672.0000000000002
20
-84.350799999999921
42
0.99999999999999989
10
1672.0000000000002
20
-80.299999999999926
10
1572.0000000000002
20
-80.29999999999994
42
0.99999999999999989
0
LWPOLYLINE
5
11A
100
AcDbEntity
8
INSETS D 12.00
100
AcDbPolyline
90
8
70
1
43
0.0
10
1772.0000000000002
20
-52.150799999999933
10
1772.0000000000002
20
-60.149199999999965
42
0.99999999999999989
10
1772.0000000000002
20
-64.19999999999996
10
1872.0000000000002
20
-64.199999999999946
42
0.99999999999999989
10
1872.0000000000002
20
-60.149199999999958
10
1872.0000000000002
20
-52.150799999999933
42
0.99999999999999989
10
1872.0000000000002
20
-48.099999999999945
10
1772.0000000000002
20
-48.099999999999952
42
0.99999999999999989
0
LWPOLYLINE
5
11B
100
AcDbEntity
8
INSETS D 12.00
100
AcDbPolyline
90
8
70
1
43
0.0
10
1772.0000000000002
20
-84.350799999999921
10
1772.0000000000002
20
-92.349199999999996
42
0.99999999999999989
10
1772.0000000000002
20
-96.399999999999991
10
1872.0000000000002
20
-96.400000000000006
42
0.99999999999999989
10
1872.0000000000002
20
-92.34920000000001
10
1872.0000000000002
20
-84.350799999999921
42
0.99999999999999989
10
1872.0000000000002
20
-80.299999999999926
10
1772.0000000000002
20
-80.29999999999994
42
0.99999999999999989
0
LWPOLYLINE
5
11C
100
AcDbEntity
8
INSETS D 12.00
100
AcDbPolyline
90
8
70
1
43
0.0
10
1672.0000000000002
20
-494.54920000000004
10
1672.0000000000002
20
-486.55079999999998
42
0.99999999999999989
10
1672.0000000000002
20
-482.5
10
1572.0000000000002
20
-482.5
42
0.99999999999999989
10
1572.0000000000002
20
-486.55079999999998
10
1572.0000000000002
20
-494.54920000000004
42
0.99999999999999989
10
1572.0000000000002
20
-498.60000000000002
10
1672.0000000000002
20
-498.60000000000002
42
0.99999999999999989
0
LWPOLYLINE
5
11D
100
AcDbEntity
8
INSETS D 12.00
100
AcDbPolyline
90
8
70
1
43
0.0
10
1872.0000000000002
20
-558.94920000000002
10
1872.0000000000002
20
-550.95080000000007
42
0.99999999999999989
10
1872.0000000000002
20
-546.89999999999998
10
1772.0000000000002
20
-546.89999999999998
42
0.99999999999999989
10
1772.0000000000002
20
-550.95079999999996
10
1772.0000000000002
20
-558.94920000000002
42
0.99999999999999989
10
1772.0000000000002
20
-563
10
1872.0000000000002
20
-563
42
0.99999999999999989
0
LWPOLYLINE
5
11E
100
AcDbEntity
8
INSETS D 12.00
100
AcDbPolyline
90
8
70
1
43
0.0
10
1872.0000000000002
20
-430.14920000000006
10
1872.0000000000002
20
-422.15079999999995
42
0.99999999999999989
10
1872.0000000000002
20
-418.09999999999997
10
1772.0000000000002
20
-418.09999999999997
42
0.99999999999999989
10
1772.0000000000002
20
-422.15079999999995
10
1772.0000000000002
20
-430.14920000000006
42
0.99999999999999989
10
1772.0000000000002
20
-434.20000000000005
10
1872.0000000000002
20
-434.20000000000005
42
0.99999999999999989
0
LWPOLYLINE
5
11F
100
AcDbEntity
8
INSETS D 12.00
100
AcDbPolyline
90
8
70
1
43
0.0
10
1672.0000000000002
20
-365.74919999999997
10
1672.0000000000002
20
-357.75079999999997
42
0.99999999999999989
10
1672.0000000000002
20
-353.69999999999999
10
1572.0000000000002
20
-353.69999999999999
42
0.99999999999999989
10
1572.0000000000002
20
-357.75079999999997
10
1572.0000000000002
20
-365.74919999999997
42
0.99999999999999989
10
1572.0000000000002
20
-369.79999999999995
10
1672.0000000000002
20
-369.79999999999995
42
0.99999999999999989
0
LWPOLYLINE
5
120
100
AcDbEntity
8
INSETS D 12.00
100
AcDbPolyline
90
8
70
1
43
0.0
10
1672.0000000000002
20
-397.94920000000002
10
1672.0000000000002
20
-389.95080000000002
42
0.99999999999999989
10
1672.0000000000002
20
-385.89999999999998
10
1572.0000000000002
20
-385.89999999999998
42
0.99999999999999989
10
1572.0000000000002
20
-389.95079999999996
10
1572.0000000000002
20
-397.94920000000002
42
0.99999999999999989
10
1572.0000000000002
20
-402
10
1672.0000000000002
20
-402
42
0.99999999999999989
0
LWPOLYLINE
5
121
100
AcDbEntity
8
INSETS D 12.00
100
AcDbPolyline
90
8
70
1
43
0.0
10
1672.0000000000002
20
-558.94920000000002
10
1672.0000000000002
20
-550.95079999999996
42
0.99999999999999989
10
1672.0000000000002
20
-546.89999999999998
10
1572.0000000000002
20
-546.89999999999998
42
0.99999999999999989
10
1572.0000000000002
20
-550.95079999999996
10
1572.0000000000002
20
-558.94920000000002
42
0.99999999999999989
10
1572.0000000000002
20
-563
10
1672.0000000000002
20
-563
42
0.99999999999999989
0
LWPOLYLINE
5
122
100
AcDbEntity
8
INSETS D 12.00
100
AcDbPolyline
90
8
70
1
43
0.0
10
1872.0000000000002
20
-462.3492
10
1872.0000000000002
20
-454.35080000000005
42
0.99999999999999989
10
1872.0000000000002
20
-450.30000000000001
10
1772.0000000000002
20
-450.30000000000001
42
0.99999999999999989
10
1772.0000000000002
20
-454.35079999999999
10
1772.0000000000002
20
-462.34919999999994
42
0.99999999999999989
10
1772.0000000000002
20
-466.39999999999998
10
1872.0000000000002
20
-466.39999999999998
42
0.99999999999999989
0
LWPOLYLINE
5
123
100
AcDbEntity
8
INSETS D 12.00
100
AcDbPolyline
90
8
70
1
43
0.0
10
1872.0000000000002
20
-397.94920000000002
10
1872.0000000000002
20
-389.95079999999996
42
0.99999999999999989
10
1872.0000000000002
20
-385.89999999999998
10
1772.0000000000002
20
-385.89999999999998
42
0.99999999999999989
10
1772.0000000000002
20
-389.95079999999996
10
1772.0000000000002
20
-397.94920000000002
42
0.99999999999999989
10
1772.0000000000002
20
-402
10
1872.0000000000002
20
-402
42
0.99999999999999989
0
LWPOLYLINE
5
124
100
AcDbEntity
8
INSETS D 12.00
100
AcDbPolyline
90
8
70
1
43
0.0
10
1672.0000000000002
20
-526.74919999999997
10
1672.0000000000002
20
-518.75080000000003
42
0.99999999999999989
10
1672.0000000000002
20
-514.70000000000005
10
1572.0000000000002
20
-514.70000000000005
42
0.99999999999999989
10
1572.0000000000002
20
-518.75080000000003
10
1572.0000000000002
20
-526.74919999999997
42
0.99999999999999989
10
1572.0000000000002
20
-530.79999999999995
10
1672.0000000000002
20
-530.79999999999995
42
0.99999999999999989
0
LWPOLYLINE
5
125
100
AcDbEntity
8
INSETS D 12.00
100
AcDbPolyline
90
8
70
1
43
0.0
10
1872.0000000000002
20
-526.74919999999997
10
1872.0000000000002
20
-518.75080000000003
42
0.99999999999999989
10
1872.0000000000002
20
-514.70000000000005
10
1772.0000000000002
20
-514.70000000000005
42
0.99999999999999989
10
1772.0000000000002
20
-518.75080000000003
10
1772.0000000000002
20
-526.74919999999997
42
0.99999999999999989
10
1772.0000000000002
20
-530.79999999999995
10
1872.0000000000002
20
-530.79999999999995
42
0.99999999999999989
0
LWPOLYLINE
5
126
100
AcDbEntity
8
INSETS D 12.00
100
AcDbPolyline
90
8
70
1
43
0.0
10
1872.0000000000002
20
-494.54920000000004
10
1872.0000000000002
20
-486.55079999999998
42
0.99999999999999989
10
1872.0000000000002
20
-482.5
10
1772.0000000000002
20
-482.5
42
0.99999999999999989
10
1772.0000000000002
20
-486.55079999999998
10
1772.0000000000002
20
-494.54920000000004
42
0.99999999999999989
10
1772.0000000000002
20
-498.60000000000002
10
1872.0000000000002
20
-498.60000000000002
42
0.99999999999999989
0
LWPOLYLINE
5
127
100
AcDbEntity
8
INSETS D 12.00
100
AcDbPolyline
90
8
70
1
43
0.0
10
1672.0000000000002
20
-430.14920000000006
10
1672.0000000000002
20
-422.1508
42
0.99999999999999989
10
1672.0000000000002
20
-418.09999999999997
10
1572.0000000000002
20
-418.09999999999997
42
0.99999999999999989
10
1572.0000000000002
20
-422.15079999999995
10
1572.0000000000002
20
-430.14920000000006
42
0.99999999999999989
10
1572.0000000000002
20
-434.20000000000005
10
1672.0000000000002
20
-434.20000000000005
42
0.99999999999999989
0
LWPOLYLINE
5
128
100
AcDbEntity
8
INSETS D 12.00
100
AcDbPolyline
90
8
70
1
43
0.0
10
1672.0000000000002
20
-462.3492
10
1672.0000000000002
20
-454.35080000000005
42
0.99999999999999989
10
1672.0000000000002
20
-450.30000000000001
10
1572.0000000000002
20
-450.30000000000001
42
0.99999999999999989
10
1572.0000000000002
20
-454.35079999999999
10
1572.0000000000002
20
-462.34919999999994
42
0.99999999999999989
10
1572.0000000000002
20
-466.39999999999998
10
1672.0000000000002
20
-466.39999999999998
42
0.99999999999999989
0
LWPOLYLINE
5
129
100
AcDbEntity
8
INSETS D 12.00
100
AcDbPolyline
90
8
70
1
43
0.0
10
1872.0000000000002
20
-365.74919999999997
10
1872.0000000000002
20
-357.75079999999997
42
0.99999999999999989
10
1872.0000000000002
20
-353.69999999999999
10
1772.0000000000002
20
-353.69999999999999
42
0.99999999999999989
10
1772.0000000000002
20
-357.75079999999997
10
1772.0000000000002
20
-365.74919999999997
42
0.99999999999999989
10
1772.0000000000002
20
-369.79999999999995
10
1872.0000000000002
20
-369.79999999999995
42
0.99999999999999989
0
LWPOLYLINE
5
12A
100
AcDbEntity
8
INSETS D 12.00
100
AcDbPolyline
90
8
70
1
43
0.0
10
1672.0000000000002
20
-767.94920000000002
10
1672.0000000000002
20
-759.95080000000007
42
0.99999999999999989
10
1672.0000000000002
20
-755.90000000000009
10
1572.0000000000002
20
-755.90000000000009
42
0.99999999999999989
10
1572.0000000000002
20
-759.95080000000007
10
1572.0000000000002
20
-767.94920000000002
42
0.99999999999999989
10
1572.0000000000002
20
-772
10
1672.0000000000002
20
-772
42
0.99999999999999989
0
LWPOLYLINE
5
12B
100
AcDbEntity
8
INSETS D 12.00
100
AcDbPolyline
90
8
70
1
43
0.0
10
1672.0000000000002
20
-735.74920000000009
10
1672.0000000000002
20
-727.75080000000003
42
0.99999999999999989
10
1672.0000000000002
20
-723.70000000000005
10
1572.0000000000002
20
-723.70000000000005
42
0.99999999999999989
10
1572.0000000000002
20
-727.75080000000003
10
1572.0000000000002
20
-735.7492000000002
42
0.99999999999999989
10
1572.0000000000002
20
-739.80000000000007
10
1672.0000000000002
20
-739.80000000000007
42
0.99999999999999989
0
LWPOLYLINE
5
12C
100
AcDbEntity
8
INSETS D 12.00
100
AcDbPolyline
90
8
70
1
43
0.0
10
1672.0000000000002
20
-864.54920000000004
10
1672.0000000000002
20
-856.55079999999998
42
0.99999999999999989
10
1672.0000000000002
20
-852.5
10
1572.0000000000002
20
-852.5
42
0.99999999999999989
10
1572.0000000000002
20
-856.55079999999998
10
1572.0000000000002
20
-864.54920000000004
42
0.99999999999999989
10
1572.0000000000002
20
-868.60000000000002
10
1672.0000000000002
20
-868.60000000000002
42
0.99999999999999989
0
LWPOLYLINE
5
12D
100
AcDbEntity
8
INSETS D 12.00
100
AcDbPolyline
90
8
70
1
43
0.0
10
1672.0000000000002
20
-832.3492
10
1672.0000000000002
20
-824.35079999999994
42
0.99999999999999989
10
1672.0000000000002
20
-820.29999999999995
10
1572.0000000000002
20
-820.29999999999995
42
0.99999999999999989
10
1572.0000000000002
20
-824.35079999999994
10
1572.0000000000002
20
-832.3492
42
0.99999999999999989
10
1572.0000000000002
20
-836.39999999999998
10
1672.0000000000002
20
-836.39999999999998
42
0.99999999999999989
0
LWPOLYLINE
5
12E
100
AcDbEntity
8
INSETS D 12.00
100
AcDbPolyline
90
8
70
1
43
0.0
10
1672.0000000000002
20
-800.14920000000006
10
1672.0000000000002
20
-792.1508
42
0.99999999999999989
10
1672.0000000000002
20
-788.10000000000002
10
1572.0000000000002
20
-788.10000000000002
42
0.99999999999999989
10
1572.0000000000002
20
-792.1508
10
1572.0000000000002
20
-800.14920000000006
42
0.99999999999999989
10
1572.0000000000002
20
-804.20000000000005
10
1672.0000000000002
20
-804.20000000000005
42
0.99999999999999989
0
LWPOLYLINE
5
12F
100
AcDbEntity
8
INSETS D 12.00
100
AcDbPolyline
90
8
70
1
43
0.0
10
1872.0000000000002
20
-864.54920000000004
10
1872.0000000000002
20
-856.55079999999998
42
0.99999999999999989
10
1872.0000000000002
20
-852.5
10
1772.0000000000002
20
-852.5
42
0.99999999999999989
10
1772.0000000000002
20
-856.55079999999998
10
1772.0000000000002
20
-864.54920000000004
42
0.99999999999999989
10
1772.0000000000002
20
-868.60000000000002
10
1872.0000000000002
20
-868.60000000000002
42
0.99999999999999989
0
LWPOLYLINE
5
130
100
AcDbEntity
8
INSETS D 12.00
100
AcDbPolyline
90
8
70
1
43
0.0
10
1872.0000000000002
20
-800.14920000000006
10
1872.0000000000002
20
-792.1508
42
0.99999999999999989
10
1872.0000000000002
20
-788.10000000000002
10
1772.0000000000002
20
-788.10000000000002
42
0.99999999999999989
10
1772.0000000000002
20
-792.1508
10
1772.0000000000002
20
-800.14920000000006
42
0.99999999999999989
10
1772.0000000000002
20
-804.20000000000005
10
1872.0000000000002
20
-804.20000000000005
42
0.99999999999999989
0
LWPOLYLINE
5
131
100
AcDbEntity
8
INSETS D 12.00
100
AcDbPolyline
90
8
70
1
43
0.0
10
1872.0000000000002
20
-703.54920000000004
10
1872.0000000000002
20
-695.55079999999998
42
0.99999999999999989
10
1872.0000000000002
20
-691.5
10
1772.0000000000002
20
-691.5
42
0.99999999999999989
10
1772.0000000000002
20
-695.55079999999998
10
1772.0000000000002
20
-703.54920000000016
42
0.99999999999999989
10
1772.0000000000002
20
-707.60000000000002
10
1872.0000000000002
20
-707.60000000000002
42
0.99999999999999989
0
LWPOLYLINE
5
132
100
AcDbEntity
8
INSETS D 12.00
100
AcDbPolyline
90
8
70
1
43
0.0
10
1872.0000000000002
20
-767.94920000000002
10
1872.0000000000002
20
-759.95080000000007
42
0.99999999999999989
10
1872.0000000000002
20
-755.90000000000009
10
1772.0000000000002
20
-755.90000000000009
42
0.99999999999999989
10
1772.0000000000002
20
-759.95080000000007
10
1772.0000000000002
20
-767.94920000000002
42
0.99999999999999989
10
1772.0000000000002
20
-772
10
1872.0000000000002
20
-772
42
0.99999999999999989
0
LWPOLYLINE
5
133
100
AcDbEntity
8
INSETS D 12.00
100
AcDbPolyline
90
8
70
1
43
0.0
10
1672.0000000000002
20
-703.54920000000004
10
1672.0000000000002
20
-695.55079999999998
42
0.99999999999999989
10
1672.0000000000002
20
-691.5
10
1572.0000000000002
20
-691.5
42
0.99999999999999989
10
1572.0000000000002
20
-695.55079999999998
10
1572.0000000000002
20
-703.54920000000016
42
0.99999999999999989
10
1572.0000000000002
20
-707.60000000000002
10
1672.0000000000002
20
-707.60000000000002
42
0.99999999999999989
0
LWPOLYLINE
5
134
100
AcDbEntity
8
INSETS D 12.00
100
AcDbPolyline
90
8
70
1
43
0.0
10
1872.0000000000002
20
-735.74920000000009
10
1872.0000000000002
20
-727.75080000000003
42
0.99999999999999989
10
1872.0000000000002
20
-723.70000000000005
10
1772.0000000000002
20
-723.70000000000005
42
0.99999999999999989
10
1772.0000000000002
20
-727.75080000000003
10
1772.0000000000002
20
-735.7492000000002
42
0.99999999999999989
10
1772.0000000000002
20
-739.80000000000007
10
1872.0000000000002
20
-739.80000000000007
42
0.99999999999999989
0
LWPOLYLINE
5
135
100
AcDbEntity
8
INSETS D 12.00
100
AcDbPolyline
90
8
70
1
43
0.0
10
1872.0000000000002
20
-832.3492
10
1872.0000000000002
20
-824.35079999999994
42
0.99999999999999989
10
1872.0000000000002
20
-820.29999999999995
10
1772.0000000000002
20
-820.29999999999995
42
0.99999999999999989
10
1772.0000000000002
20
-824.35079999999994
10
1772.0000000000002
20
-832.3492
42
0.99999999999999989
10
1772.0000000000002
20
-836.39999999999998
10
1872.0000000000002
20
-836.39999999999998
42
0.99999999999999989
0
LWPOLYLINE
5
136
100
AcDbEntity
8
INSETS D 12.00
100
AcDbPolyline
90
8
70
1
43
0.0
10
1672.0000000000002
20
-671.34919999999988
10
1672.0000000000002
20
-663.35079999999994
42
0.99999999999999989
10
1672.0000000000002
20
-659.30000000000007
10
1572.0000000000002
20
-659.30000000000007
42
0.99999999999999989
10
1572.0000000000002
20
-663.35080000000005
10
1572.0000000000002
20
-671.34920000000011
42
0.99999999999999989
10
1572.0000000000002
20
-675.39999999999986
10
1672.0000000000002
20
-675.39999999999986
42
0.99999999999999989
0
LWPOLYLINE
5
137
100
AcDbEntity
8
INSETS D 12.00
100
AcDbPolyline
90
8
70
1
43
0.0
10
1872.0000000000002
20
-671.34919999999988
10
1872.0000000000002
20
-663.35079999999994
42
0.99999999999999989
10
1872.0000000000002
20
-659.30000000000007
10
1772.0000000000002
20
-659.30000000000007
42
0.99999999999999989
10
1772.0000000000002
20
-663.35080000000005
10
1772.0000000000002
20
-671.34920000000011
42
0.99999999999999989
10
1772.0000000000002
20
-675.39999999999986
10
1872.0000000000002
20
-675.39999999999986
42
0.99999999999999989
0
LWPOLYLINE
5
138
100
AcDbEntity
8
INSETS D 12.00
100
AcDbPolyline
90
8
70
1
43
0.0
10
1872.0000000000002
20
-1170.1492000000003
10
1872.0000000000002
20
-1162.1508000000001
42
0.99999999999999989
10
1872.0000000000002
20
-1158.1000000000001
10
1772.0000000000002
20
-1158.1000000000001
42
0.99999999999999989
10
1772.0000000000002
20
-1162.1508000000001
10
1772.0000000000002
20
-1170.1492000000003
42
0.99999999999999989
10
1772.0000000000002
20
-1174.2000000000003
10
1872.0000000000002
20
-1174.2000000000003
42
0.99999999999999989
0
LWPOLYLINE
5
139
100
AcDbEntity
8
INSETS D 12.00
100
AcDbPolyline
90
8
70
1
43
0.0
10
1672.0000000000002
20
-1009.1492000000003
10
1672.0000000000002
20
-1001.1508000000002
42
0.99999999999999989
10
1672.0000000000002
20
-997.10000000000014
10
1572.0000000000002
20
-997.10000000000014
42
0.99999999999999989
10
1572.0000000000002
20
-1001.1508000000001
10
1572.0000000000002
20
-1009.1492000000003
42
0.99999999999999989
10
1572.0000000000002
20
-1013.2000000000003
10
1672.0000000000002
20
-1013.2000000000003
42
0.99999999999999989
0
LWPOLYLINE
5
13A
100
AcDbEntity
8
INSETS D 12.00
100
AcDbPolyline
90
8
70
1
43
0.0
10
1672.0000000000002
20
-1073.5492000000002
10
1672.0000000000002
20
-1065.5508000000002
42
0.99999999999999989
10
1672.0000000000002
20
-1061.5000000000002
10
1572.0000000000002
20
-1061.5000000000002
42
0.99999999999999989
10
1572.0000000000002
20
-1065.5508000000002
10
1572.0000000000002
20
-1073.5492000000002
42
0.99999999999999989
10
1572.0000000000002
20
-1077.6000000000001
10
1672.0000000000002
20
-1077.6000000000001
42
0.99999999999999989
0
LWPOLYLINE
5
13B
100
AcDbEntity
8
INSETS D 12.00
100
AcDbPolyline
90
8
70
1
43
0.0
10
1872.0000000000002
20
-1073.5492000000002
10
1872.0000000000002
20
-1065.5508000000002
42
0.99999999999999989
10
1872.0000000000002
20
-1061.5000000000002
10
1772.0000000000002
20
-1061.5000000000002
42
0.99999999999999989
10
1772.0000000000002
20
-1065.5508000000002
10
1772.0000000000002
20
-1073.5492000000002
42
0.99999999999999989
10
1772.0000000000002
20
-1077.6000000000001
10
1872.0000000000002
20
-1077.6000000000001
42
0.99999999999999989
0
LWPOLYLINE
5
13C
100
AcDbEntity
8
INSETS D 12.00
100
AcDbPolyline
90
8
70
1
43
0.0
10
1872.0000000000002
20
-1009.1492000000003
10
1872.0000000000002
20
-1001.1508000000001
42
0.99999999999999989
10
1872.0000000000002
20
-997.10000000000014
10
1772.0000000000002
20
-997.10000000000014
42
0.99999999999999989
10
1772.0000000000002
20
-1001.1508000000001
10
1772.0000000000002
20
-1009.1492000000003
42
0.99999999999999989
10
1772.0000000000002
20
-1013.2000000000003
10
1872.0000000000002
20
-1013.2000000000003
42
0.99999999999999989
0
LWPOLYLINE
5
13D
100
AcDbEntity
8
INSETS D 12.00
100
AcDbPolyline
90
8
70
1
43
0.0
10
1672.0000000000002
20
-1041.3492000000001
10
1672.0000000000002
20
-1033.3508000000002
42
0.99999999999999989
10
1672.0000000000002
20
-1029.3000000000002
10
1572.0000000000002
20
-1029.3000000000002
42
0.99999999999999989
10
1572.0000000000002
20
-1033.3508000000002
10
1572.0000000000002
20
-1041.3492000000001
42
0.99999999999999989
10
1572.0000000000002
20
-1045.4000000000001
10
1672.0000000000002
20
-1045.4000000000001
42
0.99999999999999989
0
LWPOLYLINE
5
13E
100
AcDbEntity
8
INSETS D 12.00
100
AcDbPolyline
90
8
70
1
43
0.0
10
1872.0000000000002
20
-976.94920000000025
10
1872.0000000000002
20
-968.95080000000019
42
0.99999999999999989
10
1872.0000000000002
20
-964.90000000000009
10
1772.0000000000002
20
-964.90000000000009
42
0.99999999999999989
10
1772.0000000000002
20
-968.95080000000007
10
1772.0000000000002
20
-976.94920000000013
42
0.99999999999999989
10
1772.0000000000002
20
-981.00000000000023
10
1872.0000000000002
20
-981.00000000000023
42
0.99999999999999989
0
LWPOLYLINE
5
13F
100
AcDbEntity
8
INSETS D 12.00
100
AcDbPolyline
90
8
70
1
43
0.0
10
1872.0000000000002
20
-1041.3492000000001
10
1872.0000000000002
20
-1033.3508000000002
42
0.99999999999999989
10
1872.0000000000002
20
-1029.3000000000002
10
1772.0000000000002
20
-1029.3000000000002
42
0.99999999999999989
10
1772.0000000000002
20
-1033.3508000000002
10
1772.0000000000002
20
-1041.3492000000001
42
0.99999999999999989
10
1772.0000000000002
20
-1045.4000000000001
10
1872.0000000000002
20
-1045.4000000000001
42
0.99999999999999989
0
LWPOLYLINE
5
140
100
AcDbEntity
8
INSETS D 12.00
100
AcDbPolyline
90
8
70
1
43
0.0
10
1872.0000000000002
20
-1137.9492000000002
10
1872.0000000000002
20
-1129.9508000000001
42
0.99999999999999989
10
1872.0000000000002
20
-1125.9000000000001
10
1772.0000000000002
20
-1125.9000000000001
42
0.99999999999999989
10
1772.0000000000002
20
-1129.9508000000001
10
1772.0000000000002
20
-1137.9492000000002
42
0.99999999999999989
10
1772.0000000000002
20
-1142.0000000000002
10
1872.0000000000002
20
-1142.0000000000002
42
0.99999999999999989
0
LWPOLYLINE
5
141
100
AcDbEntity
8
INSETS D 12.00
100
AcDbPolyline
90
8
70
1
43
0.0
10
1672.0000000000002
20
-1170.1492000000003
10
1672.0000000000002
20
-1162.1508000000001
42
0.99999999999999989
10
1672.0000000000002
20
-1158.1000000000001
10
1572.0000000000002
20
-1158.1000000000001
42
0.99999999999999989
10
1572.0000000000002
20
-1162.1508000000001
10
1572.0000000000002
20
-1170.1492000000003
42
0.99999999999999989
10
1572.0000000000002
20
-1174.2000000000003
10
1672.0000000000002
20
-1174.2000000000003
42
0.99999999999999989
0
LWPOLYLINE
5
142
100
AcDbEntity
8
INSETS D 12.00
100
AcDbPolyline
90
8
70
1
43
0.0
10
1672.0000000000002
20
-976.94920000000025
10
1672.0000000000002
20
-968.95080000000019
42
0.99999999999999989
10
1672.0000000000002
20
-964.90000000000009
10
1572.0000000000002
20
-964.90000000000009
42
0.99999999999999989
10
1572.0000000000002
20
-968.95080000000007
10
1572.0000000000002
20
-976.94920000000013
42
0.99999999999999989
10
1572.0000000000002
20
-981.00000000000023
10
1672.0000000000002
20
-981.00000000000023
42
0.99999999999999989
0
LWPOLYLINE
5
143
100
AcDbEntity
8
INSETS D 12.00
100
AcDbPolyline
90
8
70
1
43
0.0
10
1672.0000000000002
20
-1105.7492000000002
10
1672.0000000000002
20
-1097.7508000000003
42
0.99999999999999989
10
1672.0000000000002
20
-1093.7000000000003
10
1572.0000000000002
20
-1093.7000000000003
42
0.99999999999999989
10
1572.0000000000002
20
-1097.7508000000003
10
1572.0000000000002
20
-1105.7492000000002
42
0.99999999999999989
10
1572.0000000000002
20
-1109.8000000000002
10
1672.0000000000002
20
-1109.8000000000002
42
0.99999999999999989
0
LWPOLYLINE
5
144
100
AcDbEntity
8
INSETS D 12.00
100
AcDbPolyline
90
8
70
1
43
0.0
10
1672.0000000000002
20
-1137.9492000000002
10
1672.0000000000002
20
-1129.9508000000001
42
0.99999999999999989
10
1672.0000000000002
20
-1125.9000000000001
10
1572.0000000000002
20
-1125.9000000000001
42
0.99999999999999989
10
1572.0000000000002
20
-1129.9508000000001
10
1572.0000000000002
20
-1137.9492000000002
42
0.99999999999999989
10
1572.0000000000002
20
-1142.0000000000002
10
1672.0000000000002
20
-1142.0000000000002
42
0.99999999999999989
0
LWPOLYLINE
5
145
100
AcDbEntity
8
INSETS D 12.00
100
AcDbPolyline
90
8
70
1
43
0.0
10
1872.0000000000002
20
-1105.7492000000002
10
1872.0000000000002
20
-1097.7508000000003
42
0.99999999999999989
10
1872.0000000000002
20
-1093.7000000000003
10
1772.0000000000002
20
-1093.7000000000003
42
0.99999999999999989
10
1772.0000000000002
20
-1097.7508000000003
10
1772.0000000000002
20
-1105.7492000000002
42
0.99999999999999989
10
1772.0000000000002
20
-1109.8000000000002
10
1872.0000000000002
20
-1109.8000000000002
42
0.99999999999999989
0
LWPOLYLINE
5
146
100
AcDbEntity
8
INSETS D 12.00
100
AcDbPolyline
90
8
70
1
43
0.0
10
316.00000000000006
20
-1761.1508000000001
10
316.00000000000006
20
-1769.1491999999998
42
0.99999999999999989
10
316.00000000000006
20
-1773.1999999999998
10
416.00000000000011
20
-1773.1999999999998
42
0.99999999999999989
10
416.00000000000011
20
-1769.1491999999998
10
416.00000000000011
20
-1761.1508000000001
42
0.99999999999999989
10
416.00000000000011
20
-1757.1000000000001
10
316.00000000000011
20
-1757.0999999999999
42
0.99999999999999989
0
LWPOLYLINE
5
147
100
AcDbEntity
8
INSETS D 12.00
100
AcDbPolyline
90
8
70
1
43
0.0
10
116.00000000000006
20
-1696.7508
10
116.00000000000006
20
-1704.7492
42
0.99999999999999989
10
116.00000000000006
20
-1708.8
10
216.00000000000006
20
-1708.8
42
0.99999999999999989
10
216.00000000000006
20
-1704.7492
10
216.00000000000006
20
-1696.7508
42
0.99999999999999989
10
216.00000000000006
20
-1692.7
10
116.00000000000006
20
-1692.6999999999998
42
0.99999999999999989
0
LWPOLYLINE
5
148
100
AcDbEntity
8
INSETS D 12.00
100
AcDbPolyline
90
8
70
1
43
0.0
10
316.00000000000006
20
-1728.9508000000001
10
316.00000000000006
20
-1736.9492
42
0.99999999999999989
10
316.00000000000006
20
-1741
10
416.00000000000011
20
-1741
42
0.99999999999999989
10
416.00000000000011
20
-1736.9492
10
416.00000000000011
20
-1728.9508000000001
42
0.99999999999999989
10
416.00000000000011
20
-1724.9000000000001
10
316.00000000000011
20
-1724.8999999999999
42
0.99999999999999989
0
LWPOLYLINE
5
149
100
AcDbEntity
8
INSETS D 12.00
100
AcDbPolyline
90
8
70
1
43
0.0
10
316.00000000000006
20
-1664.5507999999998
10
316.00000000000006
20
-1672.5491999999999
42
0.99999999999999989
10
316.00000000000006
20
-1676.5999999999999
10
416.00000000000011
20
-1676.5999999999999
42
0.99999999999999989
10
416.00000000000011
20
-1672.5491999999999
10
416.00000000000011
20
-1664.5507999999998
42
0.99999999999999989
10
416.00000000000011
20
-1660.4999999999998
10
316.00000000000011
20
-1660.4999999999998
42
0.99999999999999989
0
LWPOLYLINE
5
14A
100
AcDbEntity
8
INSETS D 12.00
100
AcDbPolyline
90
8
70
1
43
0.0
10
316.00000000000006
20
-1600.1507999999999
10
316.00000000000006
20
-1608.1491999999998
42
0.99999999999999989
10
316.00000000000006
20
-1612.2
10
416.00000000000011
20
-1612.2
42
0.99999999999999989
10
416.00000000000011
20
-1608.1492000000001
10
416.00000000000011
20
-1600.1508000000001
42
0.99999999999999989
10
416.00000000000011
20
-1596.0999999999999
10
316.00000000000011
20
-1596.0999999999999
42
0.99999999999999989
0
LWPOLYLINE
5
14B
100
AcDbEntity
8
INSETS D 12.00
100
AcDbPolyline
90
8
70
1
43
0.0
10
116.00000000000006
20
-1632.3507999999997
10
116.00000000000006
20
-1640.3492000000001
42
0.99999999999999989
10
116.00000000000006
20
-1644.4000000000001
10
216.00000000000006
20
-1644.4000000000001
42
0.99999999999999989
10
216.00000000000006
20
-1640.3492000000001
10
216.00000000000006
20
-1632.3507999999997
42
0.99999999999999989
10
216.00000000000006
20
-1628.2999999999997
10
116.00000000000006
20
-1628.2999999999997
42
0.99999999999999989
0
LWPOLYLINE
5
14C
100
AcDbEntity
8
INSETS D 12.00
100
AcDbPolyline
90
8
70
1
43
0.0
10
116.00000000000006
20
-1728.9508000000001
10
116.00000000000006
20
-1736.9492
42
0.99999999999999989
10
116.00000000000006
20
-1741
10
216.00000000000006
20
-1741
42
0.99999999999999989
10
216.00000000000006
20
-1736.9492
10
216.00000000000006
20
-1728.9508000000001
42
0.99999999999999989
10
216.00000000000006
20
-1724.9000000000001
10
116.00000000000006
20
-1724.8999999999999
42
0.99999999999999989
0
LWPOLYLINE
5
14D
100
AcDbEntity
8
INSETS D 12.00
100
AcDbPolyline
90
8
70
1
43
0.0
10
116.00000000000006
20
-1761.1508000000001
10
116.00000000000006
20
-1769.1491999999998
42
0.99999999999999989
10
116.00000000000006
20
-1773.1999999999998
10
216.00000000000006
20
-1773.1999999999998
42
0.99999999999999989
10
216.00000000000006
20
-1769.1491999999998
10
216.00000000000006
20
-1761.1508000000001
42
0.99999999999999989
10
216.00000000000006
20
-1757.1000000000001
10
116.00000000000006
20
-1757.0999999999999
42
0.99999999999999989
0
LWPOLYLINE
5
14E
100
AcDbEntity
8
INSETS D 12.00
100
AcDbPolyline
90
8
70
1
43
0.0
10
316.00000000000006
20
-1793.3508000000002
10
316.00000000000006
20
-1801.3491999999999
42
0.99999999999999989
10
316.00000000000006
20
-1805.3999999999999
10
416.00000000000011
20
-1805.3999999999999
42
0.99999999999999989
10
416.00000000000011
20
-1801.3491999999999
10
416.00000000000011
20
-1793.3508000000002
42
0.99999999999999989
10
416.00000000000011
20
-1789.3000000000002
10
316.00000000000011
20
-1789.3000000000002
42
0.99999999999999989
0
LWPOLYLINE
5
14F
100
AcDbEntity
8
INSETS D 12.00
100
AcDbPolyline
90
8
70
1
43
0.0
10
116.00000000000006
20
-1664.5507999999998
10
116.00000000000006
20
-1672.5491999999999
42
0.99999999999999989
10
116.00000000000006
20
-1676.5999999999999
10
216.00000000000006
20
-1676.5999999999999
42
0.99999999999999989
10
216.00000000000006
20
-1672.5491999999999
10
216.00000000000006
20
-1664.5507999999998
42
0.99999999999999989
10
216.00000000000006
20
-1660.4999999999998
10
116.00000000000006
20
-1660.4999999999998
42
0.99999999999999989
0
LWPOLYLINE
5
150
100
AcDbEntity
8
INSETS D 12.00
100
AcDbPolyline
90
8
70
1
43
0.0
10
316.00000000000006
20
-1696.7508
10
316.00000000000006
20
-1704.7492
42
0.99999999999999989
10
316.00000000000006
20
-1708.8
10
416.00000000000011
20
-1708.8
42
0.99999999999999989
10
416.00000000000011
20
-1704.7492
10
416.00000000000011
20
-1696.7508
42
0.99999999999999989
10
416.00000000000011
20
-1692.7
10
316.00000000000011
20
-1692.6999999999998
42
0.99999999999999989
0
LWPOLYLINE
5
151
100
AcDbEntity
8
INSETS D 12.00
100
AcDbPolyline
90
8
70
1
43
0.0
10
316.00000000000006
20
-1632.3507999999997
10
316.00000000000006
20
-1640.3492000000001
42
0.99999999999999989
10
316.00000000000006
20
-1644.4000000000001
10
416.00000000000011
20
-1644.4000000000001
42
0.99999999999999989
10
416.00000000000011
20
-1640.3492000000001
10
416.00000000000011
20
-1632.3507999999997
42
0.99999999999999989
10
416.00000000000011
20
-1628.2999999999997
10
316.00000000000011
20
-1628.2999999999997
42
0.99999999999999989
0
LWPOLYLINE
5
152
100
AcDbEntity
8
INSETS D 12.00
100
AcDbPolyline
90
8
70
1
43
0.0
10
116.00000000000006
20
-1600.1507999999999
10
116.00000000000006
20
-1608.1491999999998
42
0.99999999999999989
10
116.00000000000006
20
-1612.2
10
216.00000000000006
20
-1612.2
42
0.99999999999999989
10
216.00000000000006
20
-1608.1492000000001
10
216.00000000000006
20
-1600.1508000000001
42
0.99999999999999989
10
216.00000000000006
20
-1596.0999999999999
10
116.00000000000006
20
-1596.0999999999999
42
0.99999999999999989
0
LWPOLYLINE
5
153
100
AcDbEntity
8
INSETS D 12.00
100
AcDbPolyline
90
8
70
1
43
0.0
10
116.00000000000006
20
-1793.3508000000002
10
116.00000000000006
20
-1801.3492000000001
42
0.99999999999999989
10
116.00000000000006
20
-1805.3999999999999
10
216.00000000000006
20
-1805.3999999999999
42
0.99999999999999989
10
216.00000000000006
20
-1801.3491999999999
10
216.00000000000006
20
-1793.3508000000002
42
0.99999999999999989
10
216.00000000000006
20
-1789.3000000000002
10
116.00000000000006
20
-1789.3000000000002
42
0.99999999999999989
0
LWPOLYLINE
5
154
100
AcDbEntity
8
INSETS D 12.00
100
AcDbPolyline
90
8
70
1
43
0.0
10
844
20
-1632.3507999999997
10
844
20
-1640.3492000000001
42
0.99999999999999989
10
844
20
-1644.4000000000001
10
944
20
-1644.4000000000001
42
0.99999999999999989
10
944
20
-1640.3492000000001
10
944
20
-1632.3507999999997
42
0.99999999999999989
10
944
20
-1628.2999999999997
10
844
20
-1628.2999999999997
42
0.99999999999999989
0
LWPOLYLINE
5
155
100
AcDbEntity
8
INSETS D 12.00
100
AcDbPolyline
90
8
70
1
43
0.0
10
1044
20
-1632.3507999999997
10
1044
20
-1640.3492000000001
42
0.99999999999999989
10
1044
20
-1644.4000000000001
10
1144
20
-1644.4000000000001
42
0.99999999999999989
10
1144
20
-1640.3492000000001
10
1144
20
-1632.3507999999997
42
0.99999999999999989
10
1144
20
-1628.2999999999997
10
1044
20
-1628.2999999999997
42
0.99999999999999989
0
LWPOLYLINE
5
156
100
AcDbEntity
8
INSETS D 12.00
100
AcDbPolyline
90
8
70
1
43
0.0
10
844
20
-1600.1507999999999
10
844
20
-1608.1491999999998
42
0.99999999999999989
10
844
20
-1612.2
10
944
20
-1612.2
42
0.99999999999999989
10
944
20
-1608.1492000000001
10
944
20
-1600.1508000000001
42
0.99999999999999989
10
944
20
-1596.0999999999999
10
844
20
-1596.0999999999999
42
0.99999999999999989
0
LWPOLYLINE
5
157
100
AcDbEntity
8
INSETS D 12.00
100
AcDbPolyline
90
8
70
1
43
0.0
10
844
20
-1728.9508000000001
10
844
20
-1736.9492
42
0.99999999999999989
10
844
20
-1741
10
944
20
-1741
42
0.99999999999999989
10
944
20
-1736.9492
10
944
20
-1728.9508000000001
42
0.99999999999999989
10
944
20
-1724.9000000000001
10
844
20
-1724.8999999999999
42
0.99999999999999989
0
LWPOLYLINE
5
158
100
AcDbEntity
8
INSETS D 12.00
100
AcDbPolyline
90
8
70
1
43
0.0
10
1044
20
-1664.5507999999998
10
1044
20
-1672.5491999999999
42
0.99999999999999989
10
1044
20
-1676.5999999999999
10
1144
20
-1676.5999999999999
42
0.99999999999999989
10
1144
20
-1672.5491999999999
10
1144
20
-1664.5507999999998
42
0.99999999999999989
10
1144
20
-1660.4999999999998
10
1044
20
-1660.4999999999998
42
0.99999999999999989
0
LWPOLYLINE
5
159
100
AcDbEntity
8
INSETS D 12.00
100
AcDbPolyline
90
8
70
1
43
0.0
10
844
20
-1696.7508
10
844
20
-1704.7492
42
0.99999999999999989
10
844
20
-1708.8
10
944
20
-1708.8
42
0.99999999999999989
10
944
20
-1704.7492
10
944
20
-1696.7508
42
0.99999999999999989
10
944
20
-1692.7
10
844
20
-1692.6999999999998
42
0.99999999999999989
0
LWPOLYLINE
5
15A
100
AcDbEntity
8
INSETS D 12.00
100
AcDbPolyline
90
8
70
1
43
0.0
10
1044
20
-1728.9508000000001
10
1044
20
-1736.9492
42
0.99999999999999989
10
1044
20
-1741
10
1144
20
-1741
42
0.99999999999999989
10
1144
20
-1736.9492
10
1144
20
-1728.9508000000001
42
0.99999999999999989
10
1144
20
-1724.9000000000001
10
1044
20
-1724.8999999999999
42
0.99999999999999989
0
LWPOLYLINE
5
15B
100
AcDbEntity
8
INSETS D 12.00
100
AcDbPolyline
90
8
70
1
43
0.0
10
1044
20
-1696.7508
10
1044
20
-1704.7492
42
0.99999999999999989
10
1044
20
-1708.8
10
1144
20
-1708.8
42
0.99999999999999989
10
1144
20
-1704.7492
10
1144
20
-1696.7508
42
0.99999999999999989
10
1144
20
-1692.7
10
1044
20
-1692.6999999999998
42
0.99999999999999989
0
LWPOLYLINE
5
15C
100
AcDbEntity
8
INSETS D 12.00
100
AcDbPolyline
90
8
70
1
43
0.0
10
844
20
-1793.3508000000002
10
844
20
-1801.3492000000001
42
0.99999999999999989
10
844
20
-1805.3999999999999
10
944
20
-1805.3999999999999
42
0.99999999999999989
10
944
20
-1801.3491999999999
10
944
20
-1793.3508000000002
42
0.99999999999999989
10
944
20
-1789.3000000000002
10
844
20
-1789.3000000000002
42
0.99999999999999989
0
LWPOLYLINE
5
15D
100
AcDbEntity
8
INSETS D 12.00
100
AcDbPolyline
90
8
70
1
43
0.0
10
844
20
-1664.5507999999998
10
844
20
-1672.5491999999999
42
0.99999999999999989
10
844
20
-1676.5999999999999
10
944
20
-1676.5999999999999
42
0.99999999999999989
10
944
20
-1672.5491999999999
10
944
20
-1664.5507999999998
42
0.99999999999999989
10
944
20
-1660.4999999999998
10
844
20
-1660.4999999999998
42
0.99999999999999989
0
LWPOLYLINE
5
15E
100
AcDbEntity
8
INSETS D 12.00
100
AcDbPolyline
90
8
70
1
43
0.0
10
1044
20
-1600.1507999999999
10
1044
20
-1608.1491999999998
42
0.99999999999999989
10
1044
20
-1612.2
10
1144
20
-1612.2
42
0.99999999999999989
10
1144
20
-1608.1492000000001
10
1144
20
-1600.1508000000001
42
0.99999999999999989
10
1144
20
-1596.0999999999999
10
1044
20
-1596.0999999999999
42
0.99999999999999989
0
LWPOLYLINE
5
15F
100
AcDbEntity
8
INSETS D 12.00
100
AcDbPolyline
90
8
70
1
43
0.0
10
1044
20
-1793.3508000000002
10
1044
20
-1801.3491999999999
42
0.99999999999999989
10
1044
20
-1805.3999999999999
10
1144
20
-1805.3999999999999
42
0.99999999999999989
10
1144
20
-1801.3491999999999
10
1144
20
-1793.3508000000002
42
0.99999999999999989
10
1144
20
-1789.3000000000002
10
1044
20
-1789.3000000000002
42
0.99999999999999989
0
LWPOLYLINE
5
160
100
AcDbEntity
8
INSETS D 12.00
100
AcDbPolyline
90
8
70
1
43
0.0
10
844
20
-1761.1508000000001
10
844
20
-1769.1491999999998
42
0.99999999999999989
10
844
20
-1773.1999999999998
10
944
20
-1773.1999999999998
42
0.99999999999999989
10
944
20
-1769.1491999999998
10
944
20
-1761.1508000000001
42
0.99999999999999989
10
944
20
-1757.1000000000001
10
844
20
-1757.0999999999999
42
0.99999999999999989
0
LWPOLYLINE
5
161
100
AcDbEntity
8
INSETS D 12.00
100
AcDbPolyline
90
8
70
1
43
0.0
10
1044
20
-1761.1508000000001
10
1044
20
-1769.1491999999998
42
0.99999999999999989
10
1044
20
-1773.1999999999998
10
1144
20
-1773.1999999999998
42
0.99999999999999989
10
1144
20
-1769.1491999999998
10
1144
20
-1761.1508000000001
42
0.99999999999999989
10
1144
20
-1757.1000000000001
10
1044
20
-1757.0999999999999
42
0.99999999999999989
0
LWPOLYLINE
5
162
100
AcDbEntity
8
CUTOUTS D 16.00
100
AcDbPolyline
90
8
70
1
43
0.0
10
678
20
-316.0000000000004
42
0.99999999999999989
10
673.94920000000002
20
-316.0000000000004
10
666.05079999999987
20
-316.00000000000034
42
0.99999999999999989
10
661.99999999999989
20
-316.0000000000004
10
661.99999999999989
20
-416.00000000000045
42
0.99999999999999989
10
666.05079999999987
20
-416.00000000000045
10
673.94920000000002
20
-416.00000000000045
42
0.99999999999999989
10
678
20
-416.00000000000045
0
LWPOLYLINE
5
163
100
AcDbEntity
8
CUTOUTS D 16.00
100
AcDbPolyline
90
8
70
1
43
0.0
10
678
20
-116.00000000000038
42
0.99999999999999989
10
673.94920000000002
20
-116.00000000000038
10
666.05079999999987
20
-116.00000000000037
42
0.99999999999999989
10
661.99999999999989
20
-116.00000000000038
10
661.99999999999989
20
-216.0000000000004
42
0.99999999999999989
10
666.05079999999987
20
-216.00000000000037
10
673.94920000000002
20
-216.0000000000004
42
0.99999999999999989
10
678
20
-216.0000000000004
0
LWPOLYLINE
5
164
100
AcDbEntity
8
CUTOUTS D 16.00
100
AcDbPolyline
90
8
70
1
43
0.0
10
77.949199999999962
20
-216
42
0.99999999999999989
10
81.999999999999972
20
-216
10
81.999999999999972
20
-116.00000000000001
42
0.99999999999999989
10
77.949199999999962
20
-116.00000000000001
10
70.050799999999938
20
-116.00000000000001
42
0.99999999999999989
10
65.999999999999929
20
-116.00000000000001
10
65.999999999999929
20
-216
42
0.99999999999999989
10
70.050799999999938
20
-216
0
LWPOLYLINE
5
165
100
AcDbEntity
8
CUTOUTS D 16.00
100
AcDbPolyline
90
8
70
1
43
0.0
10
77.949199999999962
20
-416
42
0.99999999999999989
10
81.999999999999972
20
-416
10
81.999999999999972
20
-316
42
0.99999999999999989
10
77.949199999999962
20
-316
10
70.050799999999938
20
-316
42
0.99999999999999989
10
65.999999999999929
20
-316
10
65.999999999999929
20
-416
42
0.99999999999999989
10
70.050799999999938
20
-416
0
LWPOLYLINE
5
166
100
AcDbEntity
8
CUTOUTS D 16.00
100
AcDbPolyline
90
8
70
1
43
0.0
10
1394.0508
20
-316.00000000000034
10
1401.9492000000002
20
-316.00000000000034
42
-0.99999999999999989
10
1406.0000000000002
20
-316.00000000000034
10
1406.0000000000002
20
-416.00000000000045
42
-0.99999999999999989
10
1401.9492000000002
20
-416.00000000000045
10
1394.0508
20
-416.00000000000045
42
-0.99999999999999989
10
1390
20
-416.00000000000045
10
1390
20
-316.00000000000034
42
-0.99999999999999989
0
LWPOLYLINE
5
167
100
AcDbEntity
8
CUTOUTS D 16.00
100
AcDbPolyline
90
8
70
1
43
0.0
10
1394.0508
20
-116.00000000000037
10
1401.9492000000002
20
-116.00000000000037
42
-0.99999999999999989
10
1406.0000000000002
20
-116.00000000000037
10
1406.0000000000002
20
-216.00000000000037
42
-0.99999999999999989
10
1401.9492000000002
20
-216.00000000000037
10
1394.0508
20
-216.00000000000037
42
-0.99999999999999989
10
1390
20
-216.00000000000037
10
1390
20
-116.00000000000037
42
-0.99999999999999989
0
LWPOLYLINE
5
168
100
AcDbEntity
8
CUTOUTS D 16.00
100
AcDbPolyline
90
8
70
1
43
0.0
10
810.00000000000011
20
-116.00000000000001
10
810.00000000000011
20
-216
42
-0.99999999999999989
10
805.94920000000013
20
-216
10
798.05079999999998
20
-216
42
-0.99999999999999989
10
794
20
-216
10
794
20
-116.00000000000001
42
-0.99999999999999989
10
798.05079999999998
20
-116.00000000000001
10
805.94920000000013
20
-116.00000000000001
42
-0.99999999999999989
0
LWPOLYLINE
5
169
100
AcDbEntity
8
CUTOUTS D 16.00
100
AcDbPolyline
90
8
70
1
43
0.0
10
810.00000000000011
20
-316
10
810.00000000000011
20
-416
42
-0.99999999999999989
10
805.94920000000013
20
-416
10
798.05079999999998
20
-416
42
-0.99999999999999989
10
794
20
-416
10
794
20
-316
42
-0.99999999999999989
10
798.05079999999998
20
-316
10
805.94920000000013
20
-316
42
-0.99999999999999989
0
LWPOLYLINE
5
16A
100
AcDbEntity
8
CUTOUTS D 16.00
100
AcDbPolyline
90
8
70
1
43
0.0
10
678
20
-632.00000000000034
42
0.99999999999999989
10
673.94920000000002
20
-632.00000000000034
10
666.05079999999987
20
-632.00000000000034
42
0.99999999999999989
10
661.99999999999989
20
-632.00000000000034
10
661.99999999999989
20
-732.00000000000045
42
0.99999999999999989
10
666.05079999999987
20
-732.00000000000045
10
673.94920000000002
20
-732.00000000000045
42
0.99999999999999989
10
678
20
-732.00000000000045
0
LWPOLYLINE
5
16B
100
AcDbEntity
8
CUTOUTS D 16.00
100
AcDbPolyline
90
8
70
1
43
0.0
10
678
20
-832.00000000000045
42
0.99999999999999989
10
673.94920000000002
20
-832.00000000000045
10
666.05079999999987
20
-832.00000000000045
42
0.99999999999999989
10
661.99999999999989
20
-832.00000000000045
10
661.99999999999989
20
-932.00000000000045
42
0.99999999999999989
10
666.05079999999987
20
-932.00000000000045
10
673.94920000000002
20
-932.00000000000045
42
0.99999999999999989
10
678
20
-932.00000000000045
0
LWPOLYLINE
5
16C
100
AcDbEntity
8
CUTOUTS D 16.00
100
AcDbPolyline
90
8
70
1
43
0.0
10
77.949199999999962
20
-732
42
0.99999999999999989
10
81.999999999999972
20
-732
10
81.999999999999972
20
-632
42
0.99999999999999989
10
77.949199999999962
20
-632
10
70.050799999999938
20
-632
42
0.99999999999999989
10
65.999999999999929
20
-632
10
65.999999999999929
20
-732
42
0.99999999999999989
10
70.050799999999938
20
-732
0
LWPOLYLINE
5
16D
100
AcDbEntity
8
CUTOUTS D 16.00
100
AcDbPolyline
90
8
70
1
43
0.0
10
77.949199999999962
20
-932
42
0.99999999999999989
10
81.999999999999972
20
-932
10
81.999999999999972
20
-832
42
0.99999999999999989
10
77.949199999999962
20
-832
10
70.050799999999938
20
-832
42
0.99999999999999989
10
65.999999999999929
20
-832
10
65.999999999999929
20
-932
42
0.99999999999999989
10
70.050799999999938
20
-932
0
LWPOLYLINE
5
16E
100
AcDbEntity
8
CUTOUTS D 16.00
100
AcDbPolyline
90
8
70
1
43
0.0
10
1394.0508
20
-632.00000000000034
10
1401.9492000000002
20
-632.00000000000034
42
-0.99999999999999989
10
1406.0000000000002
20
-632.00000000000034
10
1406.0000000000002
20
-732.00000000000045
42
-0.99999999999999989
10
1401.9492000000002
20
-732.00000000000045
10
1394.0508
20
-732.00000000000045
42
-0.99999999999999989
10
1390
20
-732.00000000000045
10
1390
20
-632.00000000000034
42
-0.99999999999999989
0
LWPOLYLINE
5
16F
100
AcDbEntity
8
CUTOUTS D 16.00
100
AcDbPolyline
90
8
70
1
43
0.0
10
1394.0508
20
-832.00000000000045
10
1401.9492000000002
20
-832.00000000000045
42
-0.99999999999999989
10
1406.0000000000002
20
-832.00000000000045
10
1406.0000000000002
20
-932.00000000000045
42
-0.99999999999999989
10
1401.9492000000002
20
-932.00000000000045
10
1394.0508
20
-932.00000000000045
42
-0.99999999999999989
10
1390
20
-932.00000000000045
10
1390
20
-832.00000000000045
42
-0.99999999999999989
0
LWPOLYLINE
5
170
100
AcDbEntity
8
CUTOUTS D 16.00
100
AcDbPolyline
90
8
70
1
43
0.0
10
810.00000000000011
20
-632
10
810.00000000000011
20
-732
42
-0.99999999999999989
10
805.94920000000013
20
-732
10
798.05079999999998
20
-732
42
-0.99999999999999989
10
794
20
-732
10
794
20
-632
42
-0.99999999999999989
10
798.05079999999998
20
-632
10
805.94920000000013
20
-632
42
-0.99999999999999989
0
LWPOLYLINE
5
171
100
AcDbEntity
8
CUTOUTS D 16.00
100
AcDbPolyline
90
8
70
1
43
0.0
10
810.00000000000011
20
-832
10
810.00000000000011
20
-932
42
-0.99999999999999989
10
805.94920000000013
20
-932
10
798.05079999999998
20
-932
42
-0.99999999999999989
10
794
20
-932
10
794
20
-832
42
-0.99999999999999989
10
798.05079999999998
20
-832
10
805.94920000000013
20
-832
42
-0.99999999999999989
0
LWPOLYLINE
5
172
100
AcDbEntity
8
CUTOUTS D 16.00
100
AcDbPolyline
90
8
70
1
43
0.0
10
678
20
-1348.0000000000005
42
0.99999999999999989
10
673.94920000000002
20
-1348.0000000000005
10
666.05079999999987
20
-1348.0000000000005
42
0.99999999999999989
10
661.99999999999989
20
-1348.0000000000005
10
661.99999999999989
20
-1448.0000000000007
42
0.99999999999999989
10
666.05079999999987
20
-1448.0000000000007
10
673.94920000000002
20
-1448.0000000000007
42
0.99999999999999989
10
678
20
-1448.0000000000007
0
LWPOLYLINE
5
173
100
AcDbEntity
8
CUTOUTS D 16.00
100
AcDbPolyline
90
8
70
1
43
0.0
10
678
20
-1148.0000000000005
42
0.99999999999999989
10
673.94920000000002
20
-1148.0000000000005
10
666.05079999999987
20
-1148.0000000000005
42
0.99999999999999989
10
661.99999999999989
20
-1148.0000000000005
10
661.99999999999989
20
-1248.0000000000005
42
0.99999999999999989
10
666.05079999999987
20
-1248.0000000000005
10
673.94920000000002
20
-1248.0000000000005
42
0.99999999999999989
10
678
20
-1248.0000000000005
0
LWPOLYLINE
5
174
100
AcDbEntity
8
CUTOUTS D 16.00
100
AcDbPolyline
90
8
70
1
43
0.0
10
77.949199999999962
20
-1248
42
0.99999999999999989
10
81.999999999999972
20
-1248
10
81.999999999999972
20
-1148
42
0.99999999999999989
10
77.949199999999962
20
-1148
10
70.050799999999938
20
-1148
42
0.99999999999999989
10
65.999999999999929
20
-1148
10
65.999999999999929
20
-1248
42
0.99999999999999989
10
70.050799999999938
20
-1248
0
LWPOLYLINE
5
175
100
AcDbEntity
8
CUTOUTS D 16.00
100
AcDbPolyline
90
8
70
1
43
0.0
10
77.949199999999962
20
-1448
42
0.99999999999999989
10
81.999999999999972
20
-1448
10
81.999999999999972
20
-1348
42
0.99999999999999989
10
77.949199999999962
20
-1348
10
70.050799999999938
20
-1348
42
0.99999999999999989
10
65.999999999999929
20
-1348
10
65.999999999999929
20
-1448
42
0.99999999999999989
10
70.050799999999938
20
-1448
0
LWPOLYLINE
5
176
100
AcDbEntity
8
CUTOUTS D 16.00
100
AcDbPolyline
90
8
70
1
43
0.0
10
1394.0508
20
-1348.0000000000005
10
1401.9492000000002
20
-1348.0000000000005
42
-0.99999999999999989
10
1406.0000000000002
20
-1348.0000000000005
10
1406.0000000000002
20
-1448.0000000000007
42
-0.99999999999999989
10
1401.9492000000002
20
-1448.0000000000007
10
1394.0508
20
-1448.0000000000007
42
-0.99999999999999989
10
1390
20
-1448.0000000000007
10
1390
20
-1348.0000000000005
42
-0.99999999999999989
0
LWPOLYLINE
5
177
100
AcDbEntity
8
CUTOUTS D 16.00
100
AcDbPolyline
90
8
70
1
43
0.0
10
1394.0508
20
-1148.0000000000005
10
1401.9492000000002
20
-1148.0000000000005
42
-0.99999999999999989
10
1406.0000000000002
20
-1148.0000000000005
10
1406.0000000000002
20
-1248.0000000000005
42
-0.99999999999999989
10
1401.9492000000002
20
-1248.0000000000005
10
1394.0508
20
-1248.0000000000005
42
-0.99999999999999989
10
1390
20
-1248.0000000000005
10
1390
20
-1148.0000000000005
42
-0.99999999999999989
0
LWPOLYLINE
5
178
100
AcDbEntity
8
CUTOUTS D 16.00
100
AcDbPolyline
90
8
70
1
43
0.0
10
810.00000000000011
20
-1148
10
810.00000000000011
20
-1248
42
-0.99999999999999989
10
805.94920000000013
20
-1248
10
798.05079999999998
20
-1248
42
-0.99999999999999989
10
794
20
-1248
10
794
20
-1148
42
-0.99999999999999989
10
798.05079999999998
20
-1148
10
805.94920000000013
20
-1148
42
-0.99999999999999989
0
LWPOLYLINE
5
179
100
AcDbEntity
8
CUTOUTS D 16.00
100
AcDbPolyline
90
8
70
1
43
0.0
10
810.00000000000011
20
-1348
10
810.00000000000011
20
-1448
42
-0.99999999999999989
10
805.94920000000013
20
-1448
10
798.05079999999998
20
-1448
42
-0.99999999999999989
10
794
20
-1448
10
794
20
-1348
42
-0.99999999999999989
10
798.05079999999998
20
-1348
10
805.94920000000013
20
-1348
42
-0.99999999999999989
0
CIRCLE
5
17A
100
AcDbEntity
8
HOLES DIAM 4.00 D 16.00
100
AcDbCircle
10
670
20
-66.000000000000014
30
0
40
1.9999999999999929
210
0
220
0
230
1
0
CIRCLE
5
17B
100
AcDbEntity
8
HOLES DIAM 4.00 D 16.00
100
AcDbCircle
10
670
20
-266
30
0
40
1.9999999999999929
210
0
220
0
230
1
0
CIRCLE
5
17C
100
AcDbEntity
8
HOLES DIAM 4.00 D 16.00
100
AcDbCircle
10
670
20
-466
30
0
40
1.9999999999999929
210
0
220
0
230
1
0
CIRCLE
5
17D
100
AcDbEntity
8
HOLES DIAM 4.00 D 16.00
100
AcDbCircle
10
73.999999999999943
20
-66.000000000000014
30
0
40
1.9999999999999929
210
0
220
0
230
1
0
CIRCLE
5
17E
100
AcDbEntity
8
HOLES DIAM 4.00 D 16.00
100
AcDbCircle
10
73.999999999999943
20
-266
30
0
40
1.9999999999999929
210
0
220
0
230
1
0
CIRCLE
5
17F
100
AcDbEntity
8
HOLES DIAM 4.00 D 16.00
100
AcDbCircle
10
73.999999999999943
20
-466
30
0
40
1.9999999999999929
210
0
220
0
230
1
0
CIRCLE
5
180
100
AcDbEntity
8
HOLES DIAM 4.00 D 16.00
100
AcDbCircle
10
802.00000000000023
20
-466
30
0
40
1.9999999999999929
210
0
220
0
230
1
0
CIRCLE
5
181
100
AcDbEntity
8
HOLES DIAM 4.00 D 16.00
100
AcDbCircle
10
802.00000000000023
20
-66.000000000000014
30
0
40
1.9999999999999929
210
0
220
0
230
1
0
CIRCLE
5
182
100
AcDbEntity
8
HOLES DIAM 4.00 D 16.00
100
AcDbCircle
10
802.00000000000023
20
-266
30
0
40
1.9999999999999929
210
0
220
0
230
1
0
CIRCLE
5
183
100
AcDbEntity
8
HOLES DIAM 4.00 D 16.00
100
AcDbCircle
10
1398
20
-66.000000000000014
30
0
40
1.9999999999999929
210
0
220
0
230
1
0
CIRCLE
5
184
100
AcDbEntity
8
HOLES DIAM 4.00 D 16.00
100
AcDbCircle
10
1398
20
-266
30
0
40
1.9999999999999929
210
0
220
0
230
1
0
CIRCLE
5
185
100
AcDbEntity
8
HOLES DIAM 4.00 D 16.00
100
AcDbCircle
10
1398
20
-466
30
0
40
1.9999999999999929
210
0
220
0
230
1
0
CIRCLE
5
186
100
AcDbEntity
8
HOLES DIAM 4.00 D 16.00
100
AcDbCircle
10
670
20
-582
30
0
40
1.9999999999999929
210
0
220
0
230
1
0
CIRCLE
5
187
100
AcDbEntity
8
HOLES DIAM 4.00 D 16.00
100
AcDbCircle
10
670
20
-782
30
0
40
1.9999999999999929
210
0
220
0
230
1
0
CIRCLE
5
188
100
AcDbEntity
8
HOLES DIAM 4.00 D 16.00
100
AcDbCircle
10
670
20
-982
30
0
40
1.9999999999999929
210
0
220
0
230
1
0
CIRCLE
5
189
100
AcDbEntity
8
HOLES DIAM 4.00 D 16.00
100
AcDbCircle
10
73.999999999999943
20
-982
30
0
40
1.9999999999999929
210
0
220
0
230
1
0
CIRCLE
5
18A
100
AcDbEntity
8
HOLES DIAM 4.00 D 16.00
100
AcDbCircle
10
73.999999999999943
20
-582
30
0
40
1.9999999999999929
210
0
220
0
230
1
0
CIRCLE
5
18B
100
AcDbEntity
8
HOLES DIAM 4.00 D 16.00
100
AcDbCircle
10
73.999999999999943
20
-782
30
0
40
1.9999999999999929
210
0
220
0
230
1
0
CIRCLE
5
18C
100
AcDbEntity
8
HOLES DIAM 4.00 D 16.00
100
AcDbCircle
10
802.00000000000023
20
-982
30
0
40
1.9999999999999929
210
0
220
0
230
1
0
CIRCLE
5
18D
100
AcDbEntity
8
HOLES DIAM 4.00 D 16.00
100
AcDbCircle
10
802.00000000000023
20
-582
30
0
40
1.9999999999999929
210
0
220
0
230
1
0
CIRCLE
5
18E
100
AcDbEntity
8
HOLES DIAM 4.00 D 16.00
100
AcDbCircle
10
802.00000000000023
20
-782
30
0
40
1.9999999999999929
210
0
220
0
230
1
0
CIRCLE
5
18F
100
AcDbEntity
8
HOLES DIAM 4.00 D 16.00
100
AcDbCircle
10
1398
20
-582
30
0
40
1.9999999999999929
210
0
220
0
230
1
0
CIRCLE
5
190
100
AcDbEntity
8
HOLES DIAM 4.00 D 16.00
100
AcDbCircle
10
1398
20
-782
30
0
40
1.9999999999999929
210
0
220
0
230
1
0
CIRCLE
5
191
100
AcDbEntity
8
HOLES DIAM 4.00 D 16.00
100
AcDbCircle
10
1398
20
-982
30
0
40
1.9999999999999929
210
0
220
0
230
1
0
CIRCLE
5
192
100
AcDbEntity
8
HOLES DIAM 4.00 D 16.00
100
AcDbCircle
10
670
20
-1098
30
0
40
1.9999999999999929
210
0
220
0
230
1
0
CIRCLE
5
193
100
AcDbEntity
8
HOLES DIAM 4.00 D 16.00
100
AcDbCircle
10
73.999999999999943
20
-1098
30
0
40
1.9999999999999929
210
0
220
0
230
1
0
CIRCLE
5
194
100
AcDbEntity
8
HOLES DIAM 4.00 D 16.00
100
AcDbCircle
10
670
20
-1298
30
0
40
1.9999999999999929
210
0
220
0
230
1
0
CIRCLE
5
195
100
AcDbEntity
8
HOLES DIAM 4.00 D 16.00
100
AcDbCircle
10
670
20
-1498
30
0
40
1.9999999999999929
210
0
220
0
230
1
0
CIRCLE
5
196
100
AcDbEntity
8
HOLES DIAM 4.00 D 16.00
100
AcDbCircle
10
73.999999999999943
20
-1498
30
0
40
1.9999999999999929
210
0
220
0
230
1
0
CIRCLE
5
197
100
AcDbEntity
8
HOLES DIAM 4.00 D 16.00
100
AcDbCircle
10
73.999999999999943
20
-1298
30
0
40
1.9999999999999929
210
0
220
0
230
1
0
CIRCLE
5
198
100
AcDbEntity
8
HOLES DIAM 4.00 D 16.00
100
AcDbCircle
10
802.00000000000023
20
-1098
30
0
40
1.9999999999999929
210
0
220
0
230
1
0
CIRCLE
5
199
100
AcDbEntity
8
HOLES DIAM 4.00 D 16.00
100
AcDbCircle
10
802.00000000000023
20
-1498
30
0
40
1.9999999999999929
210
0
220
0
230
1
0
CIRCLE
5
19A
100
AcDbEntity
8
HOLES DIAM 4.00 D 16.00
100
AcDbCircle
10
802.00000000000023
20
-1298
30
0
40
1.9999999999999929
210
0
220
0
230
1
0
CIRCLE
5
19B
100
AcDbEntity
8
HOLES DIAM 4.00 D 16.00
100
AcDbCircle
10
1398
20
-1098
30
0
40
1.9999999999999929
210
0
220
0
230
1
0
CIRCLE
5
19C
100
AcDbEntity
8
HOLES DIAM 4.00 D 16.00
100
AcDbCircle
10
1398
20
-1298
30
0
40
1.9999999999999929
210
0
220
0
230
1
0
CIRCLE
5
19D
100
AcDbEntity
8
HOLES DIAM 4.00 D 16.00
100
AcDbCircle
10
1398
20
-1498
30
0
40
1.9999999999999929
210
0
220
0
230
1
0
LWPOLYLINE
5
19E
100
AcDbEntity
8
PERIMETER D 16.10
100
AcDbPolyline
90
16
70
1
43
0.0
10
316
20
-2180.6907999999999
42
0.99999999999999989
10
316
20
-2176.6399999999999
10
216
20
-2176.6399999999999
42
0.99999999999999989
10
216
20
-2180.6907999999999
10
216.00000000000006
20
-2188.6399999999999
10
116.00000000000003
20
-2188.6399999999999
10
116.00000000000003
20
-2180.6907999999999
42
0.99999999999999989
10
116.00000000000003
20
-2176.6399999999999
10
16.000000000000032
20
-2176.6399999999999
42
-0.41421356237309503
10
66.000000000000028
20
-2126.6399999999999
10
516
20
-2126.6399999999999
10
516.00000000000011
20
-2176.6399999999999
10
416.00000000000011
20
-2176.6399999999999
42
0.99999999999999989
10
416.00000000000011
20
-2180.6907999999999
10
416.00000000000011
20
-2188.6399999999999
10
316.00000000000006
20
-2188.6399999999999
0
LWPOLYLINE
5
19F
100
AcDbEntity
8
PERIMETER D 16.10
100
AcDbPolyline
90
16
70
1
43
0.0
10
732
20
-2176.6399999999999
42
0.99999999999999989
10
732
20
-2180.6907999999999
10
732
20
-2188.6399999999999
10
632
20
-2188.6399999999999
10
632
20
-2180.6907999999999
42
0.99999999999999989
10
632
20
-2176.6399999999999
10
532
20
-2176.6399999999999
10
532
20
-2126.6399999999999
10
982
20
-2126.6399999999999
42
-0.41421356237309503
10
1032
20
-2176.6399999999999
10
932
20
-2176.6399999999999
42
0.99999999999999989
10
932
20
-2180.6907999999999
10
932
20
-2188.6399999999999
10
832
20
-2188.6399999999999
10
832
20
-2180.6907999999999
42
0.99999999999999989
10
832
20
-2176.6399999999999
0
LWPOLYLINE
5
1A0
100
AcDbEntity
8
PERIMETER D 16.10
100
AcDbPolyline
90
4
70
1
43
0.0
10
1548
20
-2176.6399999999999
10
1048.0000000000005
20
-2176.6399999999999
42
-0.4142135623730967
10
1098
20
-2126.6399999999999
10
1548
20
-2126.6399999999999
0
LWPOLYLINE
5
1A1
100
AcDbEntity
8
PERIMETER D 16.10
100
AcDbPolyline
90
4
70
1
43
0.0
10
1564
20
-2176.6399999999999
10
2064
20
-2176.6399999999999
42
0.41421356237309503
10
2014
20
-2126.6399999999999
10
1564
20
-2126.6399999999999
0
LWPOLYLINE
5
1A2
100
AcDbEntity
8
PERIMETER D 16.10
100
AcDbPolyline
90
4
70
1
43
0.0
10
1548
20
-2242.6400000000003
10
1048.0000000000005
20
-2242.6400000000003
42
-0.4142135623730967
10
1098
20
-2192.6400000000003
10
1548
20
-2192.6400000000003
0
LWPOLYLINE
5
1A3
100
AcDbEntity
8
PERIMETER D 16.10
100
AcDbPolyline
90
4
70
1
43
0.0
10
1564
20
-2242.6400000000003
10
2064
20
-2242.6400000000003
42
0.41421356237309503
10
2014
20
-2192.6400000000003
10
1564
20
-2192.6400000000003
0
LWPOLYLINE
5
1A4
100
AcDbEntity
8
PERIMETER D 16.10
100
AcDbPolyline
90
16
70
1
43
0.0
10
316
20
-2258.6907999999999
42
0.99999999999999989
10
316
20
-2254.6399999999999
10
216
20
-2254.6399999999999
42
0.99999999999999989
10
216
20
-2258.6907999999999
10
216.00000000000006
20
-2266.6399999999999
10
116.00000000000003
20
-2266.6399999999994
10
116.00000000000003
20
-2258.6907999999999
42
0.99999999999999989
10
116.00000000000003
20
-2254.6399999999999
10
15.999999999999748
20
-2254.6399999999999
42
-0.41421356237309342
10
66.000000000000028
20
-2204.6399999999999
10
516
20
-2204.6399999999999
10
516.00000000000011
20
-2254.6399999999999
10
416.00000000000011
20
-2254.6399999999999
42
0.99999999999999989
10
416.00000000000011
20
-2258.6907999999999
10
416.00000000000011
20
-2266.6399999999999
10
316.00000000000006
20
-2266.6399999999994
0
LWPOLYLINE
5
1A5
100
AcDbEntity
8
PERIMETER D 16.10
100
AcDbPolyline
90
16
70
1
43
0.0
10
732
20
-2254.6399999999999
42
0.99999999999999989
10
732
20
-2258.6907999999999
10
732
20
-2266.6399999999994
10
632
20
-2266.6399999999994
10
632
20
-2258.6907999999999
42
0.99999999999999989
10
632
20
-2254.6399999999999
10
532
20
-2254.6399999999999
10
532
20
-2204.6399999999999
10
982
20
-2204.6399999999999
42
-0.41421356237309503
10
1032
20
-2254.6399999999999
10
932
20
-2254.6399999999999
42
0.99999999999999989
10
932
20
-2258.6907999999999
10
932
20
-2266.6399999999994
10
832
20
-2266.6399999999994
10
832
20
-2258.6907999999999
42
0.99999999999999989
10
832
20
-2254.6399999999999
0
LWPOLYLINE
5
1A6
100
AcDbEntity
8
PERIMETER D 16.10
100
AcDbPolyline
90
4
70
1
43
0.0
10
1548
20
-2308.6399999999999
10
1048
20
-2308.6399999999999
42
-0.41421356237309503
10
1098
20
-2258.6399999999999
10
1548
20
-2258.6399999999999
0
LWPOLYLINE
5
1A7
100
AcDbEntity
8
PERIMETER D 16.10
100
AcDbPolyline
90
4
70
1
43
0.0
10
1564
20
-2308.6399999999999
10
2064
20
-2308.6399999999999
42
0.41421356237309503
10
2014
20
-2258.6399999999999
10
1564
20
-2258.6399999999999
0
LWPOLYLINE
5
1A8
100
AcDbEntity
8
PERIMETER D 16.10
100
AcDbPolyline
90
16
70
1
43
0.0
10
316
20
-2336.6908000000003
42
0.99999999999999989
10
316
20
-2332.6400000000003
10
216
20
-2332.6400000000003
42
0.99999999999999989
10
216
20
-2336.6908000000003
10
216.00000000000006
20
-2344.6400000000003
10
116.00000000000003
20
-2344.6400000000003
10
116.00000000000003
20
-2336.6908000000003
42
0.99999999999999989
10
116.00000000000003
20
-2332.6400000000003
10
15.999999999999748
20
-2332.6400000000003
42
-0.41421356237309342
10
66.000000000000028
20
-2282.6400000000003
10
516
20
-2282.6400000000003
10
516.00000000000011
20
-2332.6400000000003
10
416.00000000000011
20
-2332.6400000000003
42
0.99999999999999989
10
416.00000000000011
20
-2336.6908000000003
10
416.00000000000011
20
-2344.6400000000003
10
316.00000000000006
20
-2344.6400000000003
0
LWPOLYLINE
5
1A9
100
AcDbEntity
8
PERIMETER D 16.10
100
AcDbPolyline
90
16
70
1
43
0.0
10
732
20
-2332.6400000000003
42
0.99999999999999989
10
732
20
-2336.6908000000003
10
732
20
-2344.6400000000003
10
632
20
-2344.6400000000003
10
632
20
-2336.6908000000003
42
0.99999999999999989
10
632
20
-2332.6400000000003
10
532
20
-2332.6400000000003
10
532
20
-2282.6400000000003
10
982
20
-2282.6400000000003
42
-0.41421356237309503
10
1032
20
-2332.6400000000003
10
932
20
-2332.6400000000003
42
0.99999999999999989
10
932
20
-2336.6908000000003
10
932
20
-2344.6400000000003
10
832
20
-2344.6400000000003
10
832
20
-2336.6908000000003
42
0.99999999999999989
10
832
20
-2332.6400000000003
0
LWPOLYLINE
5
1AA
100
AcDbEntity
8
PERIMETER D 16.10
100
AcDbPolyline
90
4
70
1
43
0.0
10
1548
20
-2374.6400000000003
10
1048
20
-2374.6400000000003
42
-0.41421356237309503
10
1098
20
-2324.6400000000003
10
1548
20
-2324.6400000000003
0
LWPOLYLINE
5
1AB
100
AcDbEntity
8
PERIMETER D 16.10
100
AcDbPolyline
90
4
70
1
43
0.0
10
1564
20
-2374.6400000000003
10
2064
20
-2374.6400000000003
42
0.41421356237309503
10
2014
20
-2324.6400000000003
10
1564
20
-2324.6400000000003
0
LWPOLYLINE
5
1AC
100
AcDbEntity
8
PERIMETER D 16.10
100
AcDbPolyline
90
16
70
1
43
0.0
10
316
20
-2414.6907999999999
42
0.99999999999999989
10
316
20
-2410.6399999999999
10
216
20
-2410.6399999999999
42
0.99999999999999989
10
216
20
-2414.6907999999999
10
216.00000000000006
20
-2422.6400000000003
10
116.00000000000003
20
-2422.6399999999999
10
116.00000000000003
20
-2414.6907999999999
42
0.99999999999999989
10
116.00000000000003
20
-2410.6399999999999
10
15.999999999999748
20
-2410.6399999999999
42
-0.41421356237309342
10
66.000000000000028
20
-2360.6399999999999
10
516
20
-2360.6399999999999
10
516.00000000000011
20
-2410.6399999999999
10
416.00000000000011
20
-2410.6399999999999
42
0.99999999999999989
10
416.00000000000011
20
-2414.6907999999999
10
416.00000000000011
20
-2422.6400000000003
10
316.00000000000006
20
-2422.6399999999999
0
LWPOLYLINE
5
1AD
100
AcDbEntity
8
PERIMETER D 16.10
100
AcDbPolyline
90
16
70
1
43
0.0
10
732
20
-2410.6399999999999
42
0.99999999999999989
10
732
20
-2414.6907999999999
10
732
20
-2422.6399999999999
10
632
20
-2422.6399999999999
10
632
20
-2414.6907999999999
42
0.99999999999999989
10
632
20
-2410.6399999999999
10
532
20
-2410.6399999999999
10
532
20
-2360.6399999999999
10
982
20
-2360.6399999999999
42
-0.41421356237309503
10
1032
20
-2410.6399999999999
10
932
20
-2410.6399999999999
42
0.99999999999999989
10
932
20
-2414.6907999999999
10
932
20
-2422.6399999999999
10
832
20
-2422.6399999999999
10
832
20
-2414.6907999999999
42
0.99999999999999989
10
832
20
-2410.6399999999999
0
LWPOLYLINE
5
1AE
100
AcDbEntity
8
PERIMETER D 16.10
100
AcDbPolyline
90
4
70
1
43
0.0
10
1548
20
-2440.6399999999999
10
1048
20
-2440.6399999999999
42
-0.41421356237309503
10
1098
20
-2390.6399999999999
10
1548
20
-2390.6399999999999
0
LWPOLYLINE
5
1AF
100
AcDbEntity
8
PERIMETER D 16.10
100
AcDbPolyline
90
4
70
1
43
0.0
10
1564
20
-2440.6399999999999
10
2064
20
-2440.6399999999999
42
0.41421356237309503
10
2014
20
-2390.6399999999999
10
1564
20
-2390.6399999999999
0
LWPOLYLINE
5
1B0
100
AcDbEntity
8
PERIMETER D 16.10
100
AcDbPolyline
90
16
70
1
43
0.0
10
316
20
-2492.6907999999999
42
0.99999999999999989
10
316
20
-2488.6399999999999
10
216
20
-2488.6399999999999
42
0.99999999999999989
10
216
20
-2492.6907999999999
10
216.00000000000006
20
-2500.6400000000003
10
116.00000000000003
20
-2500.6399999999999
10
116.00000000000003
20
-2492.6907999999999
42
0.99999999999999989
10
116.00000000000003
20
-2488.6399999999999
10
15.999999999999748
20
-2488.6399999999999
42
-0.41421356237309342
10
66.000000000000028
20
-2438.6399999999999
10
516
20
-2438.6399999999999
10
516.00000000000011
20
-2488.6399999999999
10
416.00000000000011
20
-2488.6399999999999
42
0.99999999999999989
10
416.00000000000011
20
-2492.6907999999999
10
416.00000000000011
20
-2500.6400000000003
10
316.00000000000006
20
-2500.6399999999999
0
LWPOLYLINE
5
1B1
100
AcDbEntity
8
PERIMETER D 16.10
100
AcDbPolyline
90
16
70
1
43
0.0
10
732
20
-2488.6399999999999
42
0.99999999999999989
10
732
20
-2492.6907999999999
10
732
20
-2500.6399999999999
10
632
20
-2500.6399999999999
10
632
20
-2492.6907999999999
42
0.99999999999999989
10
632
20
-2488.6399999999999
10
532
20
-2488.6399999999999
10
532
20
-2438.6399999999999
10
982
20
-2438.6399999999999
42
-0.41421356237309503
10
1032
20
-2488.6399999999999
10
932
20
-2488.6399999999999
42
0.99999999999999989
10
932
20
-2492.6907999999999
10
932
20
-2500.6399999999999
10
832
20
-2500.6399999999999
10
832
20
-2492.6907999999999
42
0.99999999999999989
10
832
20
-2488.6399999999999
0
LWPOLYLINE
5
1B2
100
AcDbEntity
8
PERIMETER D 16.10
100
AcDbPolyline
90
4
70
1
43
0.0
10
1548
20
-2506.6400000000003
10
1048
20
-2506.6400000000003
42
-0.41421356237309503
10
1098
20
-2456.6400000000003
10
1548
20
-2456.6400000000003
0
LWPOLYLINE
5
1B3
100
AcDbEntity
8
PERIMETER D 16.10
100
AcDbPolyline
90
4
70
1
43
0.0
10
1564
20
-2506.6400000000003
10
2064
20
-2506.6400000000003
42
0.41421356237309503
10
2014
20
-2456.6400000000003
10
1564
20
-2456.6400000000003
0
LWPOLYLINE
5
1B4
100
AcDbEntity
8
PERIMETER D 16.10
100
AcDbPolyline
90
16
70
1
43
0.0
10
316
20
-2570.6907999999999
42
0.99999999999999989
10
316
20
-2566.6399999999999
10
216
20
-2566.6399999999999
42
0.99999999999999989
10
216
20
-2570.6907999999999
10
216.00000000000006
20
-2578.6400000000003
10
116.00000000000003
20
-2578.6399999999999
10
116.00000000000003
20
-2570.6907999999999
42
0.99999999999999989
10
116.00000000000003
20
-2566.6399999999999
10
16.000000000000032
20
-2566.6399999999999
42
-0.41421356237309503
10
66.000000000000028
20
-2516.6399999999999
10
516
20
-2516.6400000000003
10
516.00000000000011
20
-2566.6399999999999
10
416.00000000000011
20
-2566.6399999999999
42
0.99999999999999989
10
416.00000000000011
20
-2570.6907999999999
10
416.00000000000011
20
-2578.6400000000003
10
316.00000000000006
20
-2578.6399999999999
0
LWPOLYLINE
5
1B5
100
AcDbEntity
8
PERIMETER D 16.10
100
AcDbPolyline
90
16
70
1
43
0.0
10
732
20
-2566.6399999999999
42
0.99999999999999989
10
732
20
-2570.6907999999999
10
732
20
-2578.6399999999999
10
632
20
-2578.6400000000003
10
632
20
-2570.6907999999999
42
0.99999999999999989
10
632
20
-2566.6399999999999
10
532
20
-2566.6399999999999
10
532
20
-2516.6399999999999
10
982
20
-2516.6399999999999
42
-0.41421356237309503
10
1032
20
-2566.6399999999999
10
932
20
-2566.6399999999999
42
0.99999999999999989
10
932
20
-2570.6907999999999
10
932
20
-2578.6399999999999
10
832
20
-2578.6400000000003
10
832
20
-2570.6907999999999
42
0.99999999999999989
10
832
20
-2566.6399999999999
0
LWPOLYLINE
5
1B6
100
AcDbEntity
8
PERIMETER D 16.10
100
AcDbPolyline
90
4
70
1
43
0.0
10
1548
20
-2572.6400000000003
10
1048
20
-2572.6400000000003
42
-0.41421356237309503
10
1098
20
-2522.6400000000003
10
1548
20
-2522.6400000000003
0
LWPOLYLINE
5
1B7
100
AcDbEntity
8
PERIMETER D 16.10
100
AcDbPolyline
90
4
70
1
43
0.0
10
1564
20
-2572.6400000000003
10
2064
20
-2572.6400000000003
42
0.41421356237309503
10
2014
20
-2522.6400000000003
10
1564
20
-2522.6400000000003
0
LWPOLYLINE
5
1B8
100
AcDbEntity
8
PERIMETER D 16.10
100
AcDbPolyline
90
4
70
1
43
0.0
10
1548
20
-2638.6399999999999
10
1048.0000000000005
20
-2638.6399999999999
42
-0.41421356237309254
10
1098
20
-2588.6399999999999
10
1548
20
-2588.6399999999999
0
LWPOLYLINE
5
1B9
100
AcDbEntity
8
PERIMETER D 16.10
100
AcDbPolyline
90
4
70
1
43
0.0
10
1564
20
-2638.6399999999999
10
2064
20
-2638.6399999999999
42
0.41421356237309503
10
2014
20
-2588.6399999999999
10
1564
20
-2588.6399999999999
0
LWPOLYLINE
5
1BA
100
AcDbEntity
8
PERIMETER D 16.10
100
AcDbPolyline
90
16
70
1
43
0.0
10
316
20
-2648.6907999999994
42
0.99999999999999989
10
316
20
-2644.6399999999994
10
216
20
-2644.6399999999994
42
0.99999999999999989
10
216
20
-2648.6907999999994
10
216.00000000000006
20
-2656.6399999999999
10
116.00000000000003
20
-2656.6399999999994
10
116.00000000000003
20
-2648.6907999999994
42
0.99999999999999989
10
116.00000000000003
20
-2644.6399999999994
10
15.999999999999943
20
-2644.6399999999994
42
-0.41421356237308893
10
66.000000000000028
20
-2594.6399999999994
10
516
20
-2594.6399999999994
10
516.00000000000011
20
-2644.6399999999994
10
416.00000000000011
20
-2644.6399999999994
42
0.99999999999999989
10
416.00000000000011
20
-2648.6907999999994
10
416.00000000000011
20
-2656.6399999999999
10
316.00000000000006
20
-2656.6399999999994
0
LWPOLYLINE
5
1BB
100
AcDbEntity
8
PERIMETER D 16.10
100
AcDbPolyline
90
16
70
1
43
0.0
10
732
20
-2644.6399999999994
42
0.99999999999999989
10
732
20
-2648.6907999999994
10
732
20
-2656.6399999999994
10
632
20
-2656.6399999999999
10
632
20
-2648.6907999999994
42
0.99999999999999989
10
632
20
-2644.6399999999994
10
532
20
-2644.6399999999994
10
532
20
-2594.6399999999994
10
982
20
-2594.6399999999994
42
-0.41421356237309503
10
1032
20
-2644.6399999999994
10
932
20
-2644.6399999999994
42
0.99999999999999989
10
932
20
-2648.6907999999994
10
932
20
-2656.6399999999994
10
832
20
-2656.6399999999999
10
832
20
-2648.6907999999994
42
0.99999999999999989
10
832
20
-2644.6399999999994
0
LWPOLYLINE
5
1BC
100
AcDbEntity
8
PERIMETER D 16.10
100
AcDbPolyline
90
4
70
1
43
0.0
10
1548
20
-2704.6399999999999
10
1048.0000000000005
20
-2704.6399999999999
42
-0.41421356237309254
10
1098
20
-2654.6399999999999
10
1548
20
-2654.6399999999999
0
LWPOLYLINE
5
1BD
100
AcDbEntity
8
PERIMETER D 16.10
100
AcDbPolyline
90
4
70
1
43
0.0
10
1564
20
-2704.6399999999999
10
2064
20
-2704.6399999999999
42
0.41421356237309503
10
2014
20
-2654.6399999999999
10
1564
20
-2654.6399999999999
0
LWPOLYLINE
5
1BE
100
AcDbEntity
8
PERIMETER D 16.10
100
AcDbPolyline
90
16
70
1
43
0.0
10
316
20
-2726.6908000000003
42
0.99999999999999989
10
316
20
-2722.6400000000003
10
216
20
-2722.6400000000003
42
0.99999999999999989
10
216
20
-2726.6908000000003
10
216.00000000000006
20
-2734.6400000000003
10
116.00000000000003
20
-2734.6399999999999
10
116.00000000000003
20
-2726.6908000000003
42
0.99999999999999989
10
116.00000000000003
20
-2722.6400000000003
10
15.999999999999943
20
-2722.6400000000003
42
-0.41421356237308893
10
66.000000000000028
20
-2672.6400000000003
10
516
20
-2672.6400000000003
10
516.00000000000011
20
-2722.6400000000003
10
416.00000000000011
20
-2722.6400000000003
42
0.99999999999999989
10
416.00000000000011
20
-2726.6908000000003
10
416.00000000000011
20
-2734.6400000000003
10
316.00000000000006
20
-2734.6399999999999
0
LWPOLYLINE
5
1BF
100
AcDbEntity
8
PERIMETER D 16.10
100
AcDbPolyline
90
16
70
1
43
0.0
10
732
20
-2722.6400000000003
42
0.99999999999999989
10
732
20
-2726.6908000000003
10
732
20
-2734.6399999999999
10
632
20
-2734.6400000000003
10
632
20
-2726.6908000000003
42
0.99999999999999989
10
632
20
-2722.6400000000003
10
532
20
-2722.6400000000003
10
532
20
-2672.6400000000003
10
982
20
-2672.6400000000003
42
-0.41421356237309503
10
1032
20
-2722.6400000000003
10
932
20
-2722.6400000000003
42
0.99999999999999989
10
932
20
-2726.6908000000003
10
932
20
-2734.6399999999999
10
832
20
-2734.6400000000003
10
832
20
-2726.6908000000003
42
0.99999999999999989
10
832
20
-2722.6400000000003
0
LWPOLYLINE
5
1C0
100
AcDbEntity
8
PERIMETER D 16.10
100
AcDbPolyline
90
4
70
1
43
0.0
10
1548
20
-2770.6400000000003
10
1048.0000000000005
20
-2770.6400000000003
42
-0.41421356237309254
10
1098
20
-2720.6400000000003
10
1548
20
-2720.6400000000003
0
LWPOLYLINE
5
1C1
100
AcDbEntity
8
PERIMETER D 16.10
100
AcDbPolyline
90
4
70
1
43
0.0
10
1564
20
-2770.6400000000003
10
2064
20
-2770.6400000000003
42
0.41421356237309503
10
2014
20
-2720.6400000000003
10
1564
20
-2720.6400000000003
0
LWPOLYLINE
5
1C2
100
AcDbEntity
8
PERIMETER D 16.10
100
AcDbPolyline
90
16
70
1
43
0.0
10
316
20
-2804.6907999999994
42
0.99999999999999989
10
316
20
-2800.6399999999994
10
216
20
-2800.6399999999994
42
0.99999999999999989
10
216
20
-2804.6907999999994
10
216.00000000000006
20
-2812.6400000000003
10
116.00000000000003
20
-2812.6399999999994
10
116.00000000000003
20
-2804.6907999999994
42
0.99999999999999989
10
116.00000000000003
20
-2800.6399999999994
10
15.999999999999943
20
-2800.6399999999994
42
-0.41421356237308893
10
66.000000000000028
20
-2750.6399999999994
10
516
20
-2750.6399999999994
10
516.00000000000011
20
-2800.6399999999994
10
416.00000000000011
20
-2800.6399999999994
42
0.99999999999999989
10
416.00000000000011
20
-2804.6907999999994
10
416.00000000000011
20
-2812.6400000000003
10
316.00000000000006
20
-2812.6399999999994
0
LWPOLYLINE
5
1C3
100
AcDbEntity
8
PERIMETER D 16.10
100
AcDbPolyline
90
16
70
1
43
0.0
10
732
20
-2800.6399999999994
42
0.99999999999999989
10
732
20
-2804.6907999999994
10
732
20
-2812.6399999999994
10
632
20
-2812.6400000000003
10
632
20
-2804.6907999999994
42
0.99999999999999989
10
632
20
-2800.6399999999994
10
532
20
-2800.6399999999994
10
532
20
-2750.6399999999994
10
982
20
-2750.6399999999994
42
-0.41421356237309503
10
1032
20
-2800.6399999999994
10
932
20
-2800.6399999999994
42
0.99999999999999989
10
932
20
-2804.6907999999994
10
932
20
-2812.6399999999994
10
832
20
-2812.6400000000003
10
832
20
-2804.6907999999994
42
0.99999999999999989
10
832
20
-2800.6399999999994
0
LWPOLYLINE
5
1C4
100
AcDbEntity
8
PERIMETER D 16.10
100
AcDbPolyline
90
4
70
1
43
0.0
10
1548
20
-2836.6399999999999
10
1048
20
-2836.6399999999999
42
-0.41421356237308926
10
1098
20
-2786.6399999999999
10
1548
20
-2786.6399999999999
0
LWPOLYLINE
5
1C5
100
AcDbEntity
8
PERIMETER D 16.10
100
AcDbPolyline
90
4
70
1
43
0.0
10
1564
20
-2836.6399999999999
10
2064
20
-2836.6399999999999
42
0.41421356237309503
10
2014
20
-2786.6399999999999
10
1564
20
-2786.6399999999999
0
LWPOLYLINE
5
1C6
100
AcDbEntity
8
PERIMETER D 16.10
100
AcDbPolyline
90
16
70
1
43
0.0
10
316
20
-2882.6907999999994
42
0.99999999999999989
10
316
20
-2878.6399999999994
10
216
20
-2878.6399999999994
42
0.99999999999999989
10
216
20
-2882.6907999999994
10
216.00000000000006
20
-2890.6399999999994
10
116.00000000000003
20
-2890.639999999999
10
116.00000000000003
20
-2882.6907999999994
42
0.99999999999999989
10
116.00000000000003
20
-2878.6399999999994
10
15.999999999999943
20
-2878.6399999999994
42
-0.41421356237308893
10
66.000000000000028
20
-2828.6399999999994
10
516
20
-2828.6399999999994
10
516.00000000000011
20
-2878.6399999999994
10
416.00000000000011
20
-2878.6399999999994
42
0.99999999999999989
10
416.00000000000011
20
-2882.6907999999994
10
416.00000000000011
20
-2890.6399999999994
10
316.00000000000006
20
-2890.639999999999
0
LWPOLYLINE
5
1C7
100
AcDbEntity
8
PERIMETER D 16.10
100
AcDbPolyline
90
16
70
1
43
0.0
10
732
20
-2878.6399999999994
42
0.99999999999999989
10
732
20
-2882.6907999999994
10
732
20
-2890.639999999999
10
632
20
-2890.6399999999994
10
632
20
-2882.6907999999994
42
0.99999999999999989
10
632
20
-2878.6399999999994
10
532
20
-2878.6399999999994
10
532
20
-2828.6399999999994
10
982
20
-2828.6399999999994
42
-0.41421356237309503
10
1032
20
-2878.6399999999994
10
932
20
-2878.6399999999994
42
0.99999999999999989
10
932
20
-2882.6907999999994
10
932
20
-2890.639999999999
10
832
20
-2890.6399999999994
10
832
20
-2882.6907999999994
42
0.99999999999999989
10
832
20
-2878.6399999999994
0
LWPOLYLINE
5
1C8
100
AcDbEntity
8
PERIMETER D 16.10
100
AcDbPolyline
90
4
70
1
43
0.0
10
1548
20
-2902.6400000000003
10
1048
20
-2902.6400000000003
42
-0.41421356237308926
10
1098
20
-2852.6400000000003
10
1548
20
-2852.6400000000003
0
LWPOLYLINE
5
1C9
100
AcDbEntity
8
PERIMETER D 16.10
100
AcDbPolyline
90
16
70
1
43
0.0
10
316
20
-2960.6907999999999
42
0.99999999999999989
10
316
20
-2956.6399999999999
10
216
20
-2956.6399999999999
42
0.99999999999999989
10
216
20
-2960.6907999999999
10
216.00000000000006
20
-2968.6400000000003
10
116.00000000000003
20
-2968.6399999999999
10
116.00000000000003
20
-2960.6907999999999
42
0.99999999999999989
10
116.00000000000003
20
-2956.6399999999999
10
15.999999999999943
20
-2956.6399999999999
42
-0.41421356237308893
10
66.000000000000028
20
-2906.6399999999999
10
516
20
-2906.6399999999999
10
516.00000000000011
20
-2956.6399999999999
10
416.00000000000011
20
-2956.6399999999999
42
0.99999999999999989
10
416.00000000000011
20
-2960.6907999999999
10
416.00000000000011
20
-2968.6400000000003
10
316.00000000000006
20
-2968.6399999999999
0
LWPOLYLINE
5
1CA
100
AcDbEntity
8
PERIMETER D 16.10
100
AcDbPolyline
90
16
70
1
43
0.0
10
732
20
-2956.6399999999999
42
0.99999999999999989
10
732
20
-2960.6907999999999
10
732
20
-2968.6399999999999
10
632
20
-2968.6400000000003
10
632
20
-2960.6907999999999
42
0.99999999999999989
10
632
20
-2956.6399999999999
10
532
20
-2956.6399999999999
10
532
20
-2906.6399999999999
10
982
20
-2906.6399999999999
42
-0.41421356237309503
10
1032
20
-2956.6399999999999
10
932
20
-2956.6399999999999
42
0.99999999999999989
10
932
20
-2960.6907999999999
10
932
20
-2968.6399999999999
10
832
20
-2968.6400000000003
10
832
20
-2960.6907999999999
42
0.99999999999999989
10
832
20
-2956.6399999999999
0
LWPOLYLINE
5
1CB
100
AcDbEntity
8
PERIMETER D 16.10
100
AcDbPolyline
90
4
70
1
43
0.0
10
1548
20
-2968.6399999999999
10
1048.0000000000005
20
-2968.6399999999999
42
-0.41421356237309254
10
1098
20
-2918.6399999999999
10
1548
20
-2918.6399999999999
0
LWPOLYLINE
5
1CC
100
AcDbEntity
8
PERIMETER D 16.10
100
AcDbPolyline
90
16
70
1
43
0.0
10
316
20
-3038.6907999999994
42
0.99999999999999989
10
316
20
-3034.6399999999994
10
216
20
-3034.6399999999994
42
0.99999999999999989
10
216
20
-3038.6907999999994
10
216.00000000000006
20
-3046.6399999999999
10
116.00000000000003
20
-3046.6399999999994
10
116.00000000000003
20
-3038.6907999999994
42
0.99999999999999989
10
116.00000000000003
20
-3034.6399999999994
10
15.999999999999943
20
-3034.6399999999994
42
-0.41421356237308893
10
66.000000000000028
20
-2984.6399999999994
10
516
20
-2984.6399999999994
10
516.00000000000011
20
-3034.6399999999994
10
416.00000000000011
20
-3034.6399999999994
42
0.99999999999999989
10
416.00000000000011
20
-3038.6907999999994
10
416.00000000000011
20
-3046.6399999999999
10
316.00000000000006
20
-3046.6399999999994
0
LWPOLYLINE
5
1CD
100
AcDbEntity
8
PERIMETER D 16.10
100
AcDbPolyline
90
16
70
1
43
0.0
10
732
20
-3034.6399999999994
42
0.99999999999999989
10
732
20
-3038.6907999999994
10
732
20
-3046.6399999999994
10
632
20
-3046.6399999999999
10
632
20
-3038.6907999999994
42
0.99999999999999989
10
632
20
-3034.6399999999994
10
532
20
-3034.6399999999994
10
532
20
-2984.6399999999994
10
982
20
-2984.6399999999994
42
-0.41421356237309503
10
1032
20
-3034.6399999999994
10
932
20
-3034.6399999999994
42
0.99999999999999989
10
932
20
-3038.6907999999994
10
932
20
-3046.6399999999994
10
832
20
-3046.6399999999999
10
832
20
-3038.6907999999994
42
0.99999999999999989
10
832
20
-3034.6399999999994
0
LWPOLYLINE
5
1CE
100
AcDbEntity
8
PERIMETER D 16.10
100
AcDbPolyline
90
4
70
1
43
0.0
10
1548
20
-3034.6399999999999
10
1048.0000000000005
20
-3034.6399999999999
42
-0.41421356237309254
10
1098
20
-2984.6399999999999
10
1548
20
-2984.6399999999999
0
LWPOLYLINE
5
1CF
100
AcDbEntity
8
PERIMETER D 16.10
100
AcDbPolyline
90
4
70
1
43
0.0
10
1548
20
-3100.6400000000003
10
1048.0000000000005
20
-3100.6400000000003
42
-0.41421356237309254
10
1098
20
-3050.6400000000003
10
1548
20
-3050.6400000000003
0
LWPOLYLINE
5
1D0
100
AcDbEntity
8
PERIMETER D 16.10
100
AcDbPolyline
90
16
70
1
43
0.0
10
316
20
-3116.6908000000003
42
0.99999999999999989
10
316
20
-3112.6400000000003
10
216
20
-3112.6400000000003
42
0.99999999999999989
10
216
20
-3116.6908000000003
10
216.00000000000006
20
-3124.6400000000003
10
116.00000000000003
20
-3124.6399999999999
10
116.00000000000003
20
-3116.6908000000003
42
0.99999999999999989
10
116.00000000000003
20
-3112.6400000000003
10
15.999999999999943
20
-3112.6400000000003
42
-0.41421356237308893
10
66.000000000000028
20
-3062.6400000000003
10
516
20
-3062.6400000000003
10
516.00000000000011
20
-3112.6400000000003
10
416.00000000000011
20
-3112.6400000000003
42
0.99999999999999989
10
416.00000000000011
20
-3116.6908000000003
10
416.00000000000011
20
-3124.6400000000003
10
316.00000000000006
20
-3124.6399999999999
0
LWPOLYLINE
5
1D1
100
AcDbEntity
8
PERIMETER D 16.10
100
AcDbPolyline
90
16
70
1
43
0.0
10
732
20
-3112.6400000000003
42
0.99999999999999989
10
732
20
-3116.6908000000003
10
732
20
-3124.6399999999999
10
632
20
-3124.6400000000003
10
632
20
-3116.6908000000003
42
0.99999999999999989
10
632
20
-3112.6400000000003
10
532
20
-3112.6400000000003
10
532
20
-3062.6400000000003
10
982
20
-3062.6400000000003
42
-0.41421356237309503
10
1032
20
-3112.6400000000003
10
932
20
-3112.6400000000003
42
0.99999999999999989
10
932
20
-3116.6908000000003
10
932
20
-3124.6399999999999
10
832
20
-3124.6400000000003
10
832
20
-3116.6908000000003
42
0.99999999999999989
10
832
20
-3112.6400000000003
0
LWPOLYLINE
5
1D2
100
AcDbEntity
8
PERIMETER D 16.10
100
AcDbPolyline
90
4
70
1
43
0.0
10
1548
20
-3166.6399999999999
10
1048
20
-3166.6399999999999
42
-0.41421356237308926
10
1098
20
-3116.6399999999999
10
1548
20
-3116.6399999999999
0
LWPOLYLINE
5
1D3
100
AcDbEntity
8
PERIMETER D 16.10
100
AcDbPolyline
90
16
70
1
43
0.0
10
316
20
-3194.6907999999994
42
0.99999999999999989
10
316
20
-3190.6399999999994
10
216
20
-3190.6399999999994
42
0.99999999999999989
10
216
20
-3194.6907999999994
10
216.00000000000006
20
-3202.6400000000003
10
116.00000000000003
20
-3202.6399999999994
10
116.00000000000003
20
-3194.6907999999994
42
0.99999999999999989
10
116.00000000000003
20
-3190.6399999999994
10
15.999999999999943
20
-3190.6399999999994
42
-0.41421356237308893
10
66.000000000000028
20
-3140.6399999999994
10
516
20
-3140.6399999999994
10
516.00000000000011
20
-3190.6399999999994
10
416.00000000000011
20
-3190.6399999999994
42
0.99999999999999989
10
416.00000000000011
20
-3194.6907999999994
10
416.00000000000011
20
-3202.6400000000003
10
316.00000000000006
20
-3202.6399999999994
0
LWPOLYLINE
5
1D4
100
AcDbEntity
8
PERIMETER D 16.10
100
AcDbPolyline
90
16
70
1
43
0.0
10
732
20
-3190.6399999999994
42
0.99999999999999989
10
732
20
-3194.6907999999994
10
732
20
-3202.6399999999994
10
632
20
-3202.6400000000003
10
632
20
-3194.6907999999994
42
0.99999999999999989
10
632
20
-3190.6399999999994
10
532
20
-3190.6399999999994
10
532
20
-3140.6399999999994
10
982
20
-3140.6399999999994
42
-0.41421356237309503
10
1032
20
-3190.6399999999994
10
932
20
-3190.6399999999994
42
0.99999999999999989
10
932
20
-3194.6907999999994
10
932
20
-3202.6399999999994
10
832
20
-3202.6400000000003
10
832
20
-3194.6907999999994
42
0.99999999999999989
10
832
20
-3190.6399999999994
0
LWPOLYLINE
5
1D5
100
AcDbEntity
8
PERIMETER D 16.10
100
AcDbPolyline
90
4
70
1
43
0.0
10
1548
20
-3232.6400000000003
10
1048
20
-3232.6400000000003
42
-0.41421356237308926
10
1098
20
-3182.6400000000003
10
1548
20
-3182.6400000000003
0
LWPOLYLINE
5
1D6
100
AcDbEntity
8
PERIMETER D 16.10
100
AcDbPolyline
90
16
70
1
43
0.0
10
316
20
-3272.6908000000003
42
0.99999999999999989
10
316
20
-3268.6400000000003
10
216
20
-3268.6400000000003
42
0.99999999999999989
10
216
20
-3272.6908000000003
10
216.00000000000006
20
-3280.6400000000008
10
116.00000000000003
20
-3280.6400000000003
10
116.00000000000003
20
-3272.6908000000003
42
0.99999999999999989
10
116.00000000000003
20
-3268.6400000000003
10
15.999999999999943
20
-3268.6400000000003
42
-0.41421356237308893
10
66.000000000000028
20
-3218.6400000000003
10
516
20
-3218.6400000000003
10
516.00000000000011
20
-3268.6400000000003
10
416.00000000000011
20
-3268.6400000000003
42
0.99999999999999989
10
416.00000000000011
20
-3272.6908000000003
10
416.00000000000011
20
-3280.6400000000008
10
316.00000000000006
20
-3280.6400000000003
0
LWPOLYLINE
5
1D7
100
AcDbEntity
8
PERIMETER D 16.10
100
AcDbPolyline
90
16
70
1
43
0.0
10
732
20
-3268.6400000000003
42
0.99999999999999989
10
732
20
-3272.6908000000003
10
732
20
-3280.6400000000003
10
632
20
-3280.6400000000008
10
632
20
-3272.6908000000003
42
0.99999999999999989
10
632
20
-3268.6400000000003
10
532
20
-3268.6400000000003
10
532
20
-3218.6400000000003
10
982
20
-3218.6400000000003
42
-0.41421356237309503
10
1032
20
-3268.6400000000003
10
932
20
-3268.6400000000003
42
0.99999999999999989
10
932
20
-3272.6908000000003
10
932
20
-3280.6400000000003
10
832
20
-3280.6400000000008
10
832
20
-3272.6908000000003
42
0.99999999999999989
10
832
20
-3268.6400000000003
0
LWPOLYLINE
5
1D8
100
AcDbEntity
8
PERIMETER D 16.10
100
AcDbPolyline
90
4
70
1
43
0.0
10
1548
20
-3298.6400000000003
10
1048
20
-3298.6400000000003
42
-0.41421356237308926
10
1098
20
-3248.6400000000003
10
1548
20
-3248.6400000000003
0
LWPOLYLINE
5
1D9
100
AcDbEntity
8
PERIMETER D 16.10
100
AcDbPolyline
90
16
70
1
43
0.0
10
316
20
-3350.6907999999999
42
0.99999999999999989
10
316
20
-3346.6399999999999
10
216
20
-3346.6399999999999
42
0.99999999999999989
10
216
20
-3350.6907999999999
10
216.00000000000006
20
-3358.6400000000003
10
116.00000000000003
20
-3358.6399999999999
10
116.00000000000003
20
-3350.6907999999999
42
0.99999999999999989
10
116.00000000000003
20
-3346.6399999999999
10
15.999999999999943
20
-3346.6399999999999
42
-0.41421356237308893
10
66.000000000000028
20
-3296.6399999999999
10
516
20
-3296.6399999999999
10
516.00000000000011
20
-3346.6399999999999
10
416.00000000000011
20
-3346.6399999999999
42
0.99999999999999989
10
416.00000000000011
20
-3350.6907999999999
10
416.00000000000011
20
-3358.6400000000003
10
316.00000000000006
20
-3358.6399999999999
0
LWPOLYLINE
5
1DA
100
AcDbEntity
8
PERIMETER D 16.10
100
AcDbPolyline
90
16
70
1
43
0.0
10
732
20
-3346.6399999999999
42
0.99999999999999989
10
732
20
-3350.6907999999999
10
732
20
-3358.6399999999999
10
632
20
-3358.6400000000003
10
632
20
-3350.6907999999999
42
0.99999999999999989
10
632
20
-3346.6399999999999
10
532
20
-3346.6399999999999
10
532
20
-3296.6399999999999
10
982
20
-3296.6399999999999
42
-0.41421356237309503
10
1032
20
-3346.6399999999999
10
932
20
-3346.6399999999999
42
0.99999999999999989
10
932
20
-3350.6907999999999
10
932
20
-3358.6399999999999
10
832
20
-3358.6400000000003
10
832
20
-3350.6907999999999
42
0.99999999999999989
10
832
20
-3346.6399999999999
0
LWPOLYLINE
5
1DB
100
AcDbEntity
8
PERIMETER D 16.10
100
AcDbPolyline
90
4
70
1
43
0.0
10
1048
20
-3364.6399999999999
10
1548
20
-3364.6399999999999
42
0.41421356237309503
10
1498
20
-3314.6399999999999
10
1048
20
-3314.6399999999999
0
LWPOLYLINE
5
1DC
100
AcDbEntity
8
PERIMETER D 16.10
100
AcDbPolyline
90
16
70
1
43
0.0
10
316
20
-3428.6907999999994
42
0.99999999999999989
10
316
20
-3424.6399999999994
10
216
20
-3424.6399999999994
42
0.99999999999999989
10
216
20
-3428.6907999999994
10
216.00000000000006
20
-3436.6399999999999
10
116.00000000000003
20
-3436.6399999999994
10
116.00000000000003
20
-3428.6907999999994
42
0.99999999999999989
10
116.00000000000003
20
-3424.6399999999994
10
15.999999999999943
20
-3424.6399999999994
42
-0.41421356237308893
10
66.000000000000028
20
-3374.6399999999994
10
516
20
-3374.6399999999994
10
516.00000000000011
20
-3424.6399999999994
10
416.00000000000011
20
-3424.6399999999994
42
0.99999999999999989
10
416.00000000000011
20
-3428.6907999999994
10
416.00000000000011
20
-3436.6399999999999
10
316.00000000000006
20
-3436.6399999999994
0
LWPOLYLINE
5
1DD
100
AcDbEntity
8
PERIMETER D 16.10
100
AcDbPolyline
90
4
70
1
43
0.0
10
532
20
-3374.6399999999999
10
1031.9999999999995
20
-3374.6399999999999
42
-0.41421356237309254
10
982
20
-3424.6399999999999
10
532
20
-3424.6399999999999
0
LWPOLYLINE
5
1DE
100
AcDbEntity
8
PERIMETER D 16.10
100
AcDbPolyline
90
4
70
1
43
0.0
10
1048
20
-3430.6400000000003
10
1548
20
-3430.6400000000003
42
0.41421356237309503
10
1498
20
-3380.6400000000003
10
1048
20
-3380.6400000000003
0
LWPOLYLINE
5
1DF
100
AcDbEntity
8
PERIMETER D 16.10
100
AcDbPolyline
90
4
70
1
43
0.0
10
532
20
-3490.6400000000003
10
1032
20
-3490.6400000000003
42
0.41421356237309254
10
982
20
-3440.6399999999994
10
532
20
-3440.6400000000003
0
LWPOLYLINE
5
1E0
100
AcDbEntity
8
PERIMETER D 16.10
100
AcDbPolyline
90
4
70
1
43
0.0
10
1048
20
-3496.6399999999999
10
1548
20
-3496.6399999999999
42
0.41421356237309503
10
1498
20
-3446.6399999999999
10
1048
20
-3446.6399999999999
0
LWPOLYLINE
5
1E1
100
AcDbEntity
8
PERIMETER D 16.10
100
AcDbPolyline
90
16
70
1
43
0.0
10
316
20
-3506.6908000000003
42
0.99999999999999989
10
316
20
-3502.6400000000003
10
216
20
-3502.6400000000003
42
0.99999999999999989
10
216
20
-3506.6908000000003
10
216.00000000000006
20
-3514.6400000000003
10
116.00000000000003
20
-3514.6399999999999
10
116.00000000000003
20
-3506.6908000000003
42
0.99999999999999989
10
116.00000000000003
20
-3502.6400000000003
10
15.999999999999943
20
-3502.6400000000003
42
-0.41421356237308893
10
66.000000000000028
20
-3452.6400000000003
10
516
20
-3452.6400000000003
10
516.00000000000011
20
-3502.6400000000003
10
416.00000000000011
20
-3502.6400000000003
42
0.99999999999999989
10
416.00000000000011
20
-3506.6908000000003
10
416.00000000000011
20
-3514.6400000000003
10
316.00000000000006
20
-3514.6399999999999
0
LWPOLYLINE
5
1E2
100
AcDbEntity
8
PERIMETER D 16.10
100
AcDbPolyline
90
4
70
1
43
0.0
10
532
20
-3506.6400000000003
10
1031.9999999999995
20
-3506.6400000000003
42
-0.41421356237309254
10
982
20
-3556.6400000000003
10
532
20
-3556.6400000000003
0
LWPOLYLINE
5
1E3
100
AcDbEntity
8
PERIMETER D 16.10
100
AcDbPolyline
90
4
70
1
43
0.0
10
1048
20
-3562.6400000000003
10
1548
20
-3562.6400000000003
42
0.41421356237309503
10
1498
20
-3512.6400000000003
10
1048
20
-3512.6400000000003
0
LWPOLYLINE
5
1E4
100
AcDbEntity
8
PERIMETER D 16.10
100
AcDbPolyline
90
16
70
1
43
0.0
10
316
20
-3584.6907999999994
42
0.99999999999999989
10
316
20
-3580.6399999999994
10
216
20
-3580.6399999999994
42
0.99999999999999989
10
216
20
-3584.6907999999994
10
216.00000000000006
20
-3592.6400000000003
10
116.00000000000003
20
-3592.6399999999994
10
116.00000000000003
20
-3584.6907999999994
42
0.99999999999999989
10
116.00000000000003
20
-3580.6399999999994
10
15.999999999999943
20
-3580.6399999999994
42
-0.41421356237308893
10
66.000000000000028
20
-3530.6399999999994
10
516
20
-3530.6399999999994
10
516.00000000000011
20
-3580.6399999999994
10
416.00000000000011
20
-3580.6399999999994
42
0.99999999999999989
10
416.00000000000011
20
-3584.6907999999994
10
416.00000000000011
20
-3592.6400000000003
10
316.00000000000006
20
-3592.6399999999994
0
LWPOLYLINE
5
1E5
100
AcDbEntity
8
PERIMETER D 16.10
100
AcDbPolyline
90
4
70
1
43
0.0
10
532
20
-3622.6400000000003
10
1032
20
-3622.6400000000003
42
0.41421356237309503
10
982
20
-3572.6400000000003
10
532
20
-3572.6400000000003
0
LWPOLYLINE
5
1E6
100
AcDbEntity
8
PERIMETER D 16.10
100
AcDbPolyline
90
4
70
1
43
0.0
10
1048
20
-3628.6400000000003
10
1548
20
-3628.6400000000003
42
0.41421356237309503
10
1498
20
-3578.6400000000003
10
1048
20
-3578.6400000000003
0
LWPOLYLINE
5
1E7
100
AcDbEntity
8
PERIMETER D 16.10
100
AcDbPolyline
90
16
70
1
43
0.0
10
316
20
-3662.6908000000003
42
0.99999999999999989
10
316
20
-3658.6400000000003
10
216
20
-3658.6400000000003
42
0.99999999999999989
10
216
20
-3662.6908000000003
10
216.00000000000006
20
-3670.6400000000008
10
116.00000000000003
20
-3670.6400000000003
10
116.00000000000003
20
-3662.6908000000003
42
0.99999999999999989
10
116.00000000000003
20
-3658.6400000000003
10
15.999999999999943
20
-3658.6400000000003
42
-0.41421356237308893
10
66.000000000000028
20
-3608.6400000000003
10
516
20
-3608.6400000000003
10
516.00000000000011
20
-3658.6400000000003
10
416.00000000000011
20
-3658.6400000000003
42
0.99999999999999989
10
416.00000000000011
20
-3662.6908000000003
10
416.00000000000011
20
-3670.6400000000008
10
316.00000000000006
20
-3670.6400000000003
0
LWPOLYLINE
5
1E8
100
AcDbEntity
8
PERIMETER D 16.10
100
AcDbPolyline
90
4
70
1
43
0.0
10
532
20
-3638.6400000000003
10
1032
20
-3638.6400000000003
42
-0.41421356237309503
10
982
20
-3688.6400000000003
10
532
20
-3688.6400000000003
0
LWPOLYLINE
5
1E9
100
AcDbEntity
8
PERIMETER D 16.10
100
AcDbPolyline
90
4
70
1
43
0.0
10
1048
20
-3694.6399999999999
10
1548
20
-3694.6399999999999
42
0.41421356237309503
10
1498
20
-3644.6399999999999
10
1048
20
-3644.6399999999999
0
LWPOLYLINE
5
1EA
100
AcDbEntity
8
PERIMETER D 16.10
100
AcDbPolyline
90
16
70
1
43
0.0
10
316
20
-3740.6907999999999
42
0.99999999999999989
10
316
20
-3736.6399999999999
10
216
20
-3736.6399999999999
42
0.99999999999999989
10
216
20
-3740.6907999999999
10
216.00000000000006
20
-3748.6400000000003
10
116.00000000000003
20
-3748.6399999999999
10
116.00000000000003
20
-3740.6907999999999
42
0.99999999999999989
10
116.00000000000003
20
-3736.6399999999999
10
15.999999999999943
20
-3736.6399999999999
42
-0.41421356237308893
10
66.000000000000028
20
-3686.6399999999999
10
516
20
-3686.6399999999999
10
516.00000000000011
20
-3736.6399999999999
10
416.00000000000011
20
-3736.6399999999999
42
0.99999999999999989
10
416.00000000000011
20
-3740.6907999999999
10
416.00000000000011
20
-3748.6400000000003
10
316.00000000000006
20
-3748.6399999999999
0
LWPOLYLINE
5
1EB
100
AcDbEntity
8
PERIMETER D 16.10
100
AcDbPolyline
90
4
70
1
43
0.0
10
531.99999999999989
20
-3754.6399999999994
10
1032
20
-3754.6399999999994
42
0.41421356237309503
10
981.99999999999989
20
-3704.6399999999994
10
531.99999999999989
20
-3704.6399999999994
0
LWPOLYLINE
5
1EC
100
AcDbEntity
8
PERIMETER D 16.10
100
AcDbPolyline
90
4
70
1
43
0.0
10
1048
20
-3760.6400000000003
10
1548
20
-3760.6400000000003
42
0.41421356237309503
10
1498
20
-3710.6400000000003
10
1048
20
-3710.6400000000003
0
LWPOLYLINE
5
1ED
100
AcDbEntity
8
PERIMETER D 16.10
100
AcDbPolyline
90
16
70
1
43
0.0
10
216.00000000000006
20
-3814.6399999999994
42
0.99999999999999989
10
216.00000000000006
20
-3818.6907999999994
10
216.00000000000009
20
-3826.6399999999994
10
116.00000000000006
20
-3826.6399999999999
10
116.00000000000009
20
-3818.6907999999994
42
0.99999999999999989
10
116.00000000000009
20
-3814.6399999999994
10
16.000000000000085
20
-3814.6399999999994
10
16.000000000000085
20
-3764.6399999999994
10
466.00000000000011
20
-3764.6399999999994
42
-0.41421356237309503
10
516.00000000000011
20
-3814.6399999999994
10
416.00000000000011
20
-3814.6399999999994
42
0.99999999999999989
10
416.00000000000011
20
-3818.6907999999994
10
416.00000000000011
20
-3826.6399999999994
10
316.00000000000006
20
-3826.6399999999999
10
316.00000000000006
20
-3818.6907999999994
42
0.99999999999999989
10
316.00000000000006
20
-3814.6399999999994
0
LWPOLYLINE
5
1EE
100
AcDbEntity
8
PERIMETER D 16.10
100
AcDbPolyline
90
4
70
1
43
0.0
10
1032
20
-3820.6400000000003
10
532.00000000000057
20
-3820.6400000000003
42
-0.41421356237309209
10
582
20
-3770.6400000000003
10
1032
20
-3770.6400000000003
0
LWPOLYLINE
5
1EF
100
AcDbEntity
8
PERIMETER D 16.10
100
AcDbPolyline
90
4
70
1
43
0.0
10
1048
20
-3826.6399999999999
10
1548
20
-3826.6399999999999
42
0.41421356237309503
10
1498
20
-3776.6399999999999
10
1048
20
-3776.6399999999999
0
LWPOLYLINE
5
1F0
100
AcDbEntity
8
PERIMETER D 16.10
100
AcDbPolyline
90
4
70
1
43
0.0
10
1032
20
-3886.6399999999999
10
532
20
-3886.6399999999999
42
-0.41421356237308876
10
582
20
-3836.6399999999999
10
1032
20
-3836.6399999999999
0
LWPOLYLINE
5
1F1
100
AcDbEntity
8
PERIMETER D 16.10
100
AcDbPolyline
90
16
70
1
43
0.0
10
216.00000000000006
20
-3892.6400000000003
42
0.99999999999999989
10
216.00000000000006
20
-3896.6908000000003
10
216.00000000000009
20
-3904.6399999999999
10
116.00000000000006
20
-3904.6400000000003
10
116.00000000000009
20
-3896.6908000000003
42
0.99999999999999989
10
116.00000000000009
20
-3892.6400000000003
10
16.000000000000085
20
-3892.6400000000003
10
16.000000000000085
20
-3842.6400000000003
10
466.00000000000011
20
-3842.6400000000003
42
-0.41421356237309503
10
516.00000000000011
20
-3892.6400000000003
10
416.00000000000011
20
-3892.6400000000003
42
0.99999999999999989
10
416.00000000000011
20
-3896.6908000000003
10
416.00000000000011
20
-3904.6399999999999
10
316.00000000000006
20
-3904.6400000000003
10
316.00000000000006
20
-3896.6908000000003
42
0.99999999999999989
10
316.00000000000006
20
-3892.6400000000003
0
LWPOLYLINE
5
1F2
100
AcDbEntity
8
PERIMETER D 16.10
100
AcDbPolyline
90
4
70
1
43
0.0
10
1048
20
-3892.6400000000003
10
1548
20
-3892.6400000000003
42
0.41421356237309503
10
1498
20
-3842.6400000000003
10
1048
20
-3842.6400000000003
0
LWPOLYLINE
5
1F3
100
AcDbEntity
8
PERIMETER D 16.10
100
AcDbPolyline
90
4
70
1
43
0.0
10
1032
20
-3952.6400000000003
10
532
20
-3952.6400000000003
42
-0.41421356237308876
10
582
20
-3902.6400000000003
10
1032
20
-3902.6400000000003
0
LWPOLYLINE
5
1F4
100
AcDbEntity
8
PERIMETER D 16.10
100
AcDbPolyline
90
4
70
1
43
0.0
10
1048
20
-3958.6400000000003
10
1548
20
-3958.6400000000003
42
0.41421356237309503
10
1498
20
-3908.6400000000003
10
1048
20
-3908.6400000000003
0
LWPOLYLINE
5
1F5
100
AcDbEntity
8
PERIMETER D 16.10
100
AcDbPolyline
90
16
70
1
43
0.0
10
216.00000000000006
20
-3970.6399999999994
42
0.99999999999999989
10
216.00000000000006
20
-3974.6907999999994
10
216.00000000000009
20
-3982.6399999999994
10
116.00000000000006
20
-3982.6400000000003
10
116.00000000000009
20
-3974.6907999999994
42
0.99999999999999989
10
116.00000000000009
20
-3970.6399999999994
10
16.000000000000085
20
-3970.6399999999994
10
16.000000000000085
20
-3920.6399999999994
10
466.00000000000011
20
-3920.6399999999994
42
-0.41421356237309503
10
516.00000000000011
20
-3970.6399999999994
10
416.00000000000011
20
-3970.6399999999994
42
0.99999999999999989
10
416.00000000000011
20
-3974.6907999999994
10
416.00000000000011
20
-3982.6399999999994
10
316.00000000000006
20
-3982.6400000000003
10
316.00000000000006
20
-3974.6907999999994
42
0.99999999999999989
10
316.00000000000006
20
-3970.6399999999994
0
LWPOLYLINE
5
1F6
100
AcDbEntity
8
PERIMETER D 16.10
100
AcDbPolyline
90
4
70
1
43
0.0
10
1032
20
-4018.6400000000003
10
532
20
-4018.6400000000003
42
-0.41421356237308876
10
582
20
-3968.6400000000003
10
1032
20
-3968.6400000000003
0
LWPOLYLINE
5
1F7
100
AcDbEntity
8
PERIMETER D 16.10
100
AcDbPolyline
90
4
70
1
43
0.0
10
1048
20
-4024.6399999999999
10
1548
20
-4024.6399999999999
42
0.41421356237309503
10
1498
20
-3974.6399999999999
10
1048
20
-3974.6399999999999
0
LWPOLYLINE
5
1F8
100
AcDbEntity
8
PERIMETER D 16.10
100
AcDbPolyline
90
16
70
1
43
0.0
10
216.00000000000006
20
-4048.6400000000003
42
0.99999999999999989
10
216.00000000000006
20
-4052.6908000000003
10
216.00000000000009
20
-4060.6400000000003
10
116.00000000000006
20
-4060.6400000000008
10
116.00000000000009
20
-4052.6908000000003
42
0.99999999999999989
10
116.00000000000009
20
-4048.6400000000003
10
16.000000000000085
20
-4048.6400000000003
10
16.000000000000085
20
-3998.6400000000003
10
466.00000000000011
20
-3998.6400000000003
42
-0.41421356237309503
10
516.00000000000011
20
-4048.6400000000003
10
416.00000000000011
20
-4048.6400000000003
42
0.99999999999999989
10
416.00000000000011
20
-4052.6908000000003
10
416.00000000000011
20
-4060.6400000000003
10
316.00000000000006
20
-4060.6400000000008
10
316.00000000000006
20
-4052.6908000000003
42
0.99999999999999989
10
316.00000000000006
20
-4048.6400000000003
0
LWPOLYLINE
5
1F9
100
AcDbEntity
8
PERIMETER D 16.10
100
AcDbPolyline
90
4
70
1
43
0.0
10
1032
20
-4084.6399999999999
10
532.00000000000057
20
-4084.6399999999999
42
-0.41421356237309209
10
582
20
-4034.6399999999999
10
1032
20
-4034.6399999999999
0
LWPOLYLINE
5
1FA
100
AcDbEntity
8
PERIMETER D 16.10
100
AcDbPolyline
90
4
70
1
43
0.0
10
1048
20
-4090.6400000000003
10
1548
20
-4090.6400000000003
42
0.41421356237309503
10
1498
20
-4040.6400000000003
10
1048
20
-4040.6400000000003
0
LWPOLYLINE
5
1FB
100
AcDbEntity
8
PERIMETER D 16.10
100
AcDbPolyline
90
16
70
1
43
0.0
10
216.00000000000006
20
-4126.6399999999994
42
0.99999999999999989
10
216.00000000000006
20
-4130.6908000000003
10
216.00000000000009
20
-4138.6399999999994
10
116.00000000000006
20
-4138.6400000000003
10
116.00000000000009
20
-4130.6908000000003
42
0.99999999999999989
10
116.00000000000009
20
-4126.6399999999994
10
16.000000000000085
20
-4126.6399999999994
10
16.000000000000085
20
-4076.6399999999999
10
466.00000000000011
20
-4076.6399999999999
42
-0.41421356237309503
10
516.00000000000011
20
-4126.6399999999994
10
416.00000000000011
20
-4126.6399999999994
42
0.99999999999999989
10
416.00000000000011
20
-4130.6908000000003
10
416.00000000000011
20
-4138.6399999999994
10
316.00000000000006
20
-4138.6400000000003
10
316.00000000000006
20
-4130.6908000000003
42
0.99999999999999989
10
316.00000000000006
20
-4126.6399999999994
0
LWPOLYLINE
5
1FC
100
AcDbEntity
8
PERIMETER D 16.10
100
AcDbPolyline
90
4
70
1
43
0.0
10
1032
20
-4150.6399999999994
10
532
20
-4150.6399999999994
42
-0.41421356237308876
10
582
20
-4100.6399999999994
10
1032
20
-4100.6399999999994
0
LWPOLYLINE
5
1FD
100
AcDbEntity
8
PERIMETER D 16.10
100
AcDbPolyline
90
4
70
1
43
0.0
10
1048
20
-4156.6399999999994
10
1548
20
-4156.6399999999994
42
0.41421356237309503
10
1498
20
-4106.6399999999994
10
1048
20
-4106.6399999999994
0
ENDSEC
0
SECTION
2
OBJECTS
0
DICTIONARY
5
C
100
AcDbDictionary
3
ACAD_GROUP
350
D
3
ACAD_MLINESTYLE
350
17
0
DICTIONARY
5
D
100
AcDbDictionary
0
DICTIONARY
5
1A
330
C
100
AcDbDictionary
0
DICTIONARY
5
17
100
AcDbDictionary
0
ENDSEC
0
EOF
